<svg version="1.2" xmlns="http://www.w3.org/2000/svg" viewBox="0 0 53 53" width="53" height="53"><style>tspan{white-space:pre}.s0{fill:#222222}.s1{fill:#3f51b5}.t2{font-size: 8px;fill: #eeeeee;font-family: "Montserrat"}.s3{fill:#9c27b0}.s4{fill:#eeeeee}</style><path class="s0" d="m0 4c0-2.2 1.8-4 4-4h44.9c2.2 0 4 1.8 4 4v44.9c0 2.2-1.8 4-4 4h-44.9c-2.2 0-4-1.8-4-4z" /><path class="s1" d="m2.6 5.3c0-1.5 1.2-2.7 2.7-2.7h42.3c1.5 0 2.7 1.2 2.7 2.7v42.3c0 1.5-1.2 2.7-2.7 2.7h-42.3c-1.5 0-2.7-1.2-2.7-2.7z" /><path class="s0" d="m35 10.8c0.2 0.2 0.3 0.3 0.3 0.6c0.1 0.2 0.1 0.3 0.1 0.5c-0.1 0.3-0.7 2.4-1 3.5c0 0.2-0.1 0.5-0.1 0.5c0 0-0.1 0.2-0.1 0.5c-0.1 0.3-0.2 0.7-0.3 1c-0.1 0.3-0.2 0.8-0.3 1c-0.1 0.3-0.2 0.6-0.2 0.6c0 0 0 0.2-0.1 0.5c-0.1 0.2-0.1 0.4-0.1 0.5c-0.1 0.1-0.3 0.8-0.5 1.6c-0.4 1.7-0.5 1.8-0.8 2.1c-0.2 0.2-0.3 0.3-0.6 0.3c-0.3 0.1-0.4 0.2-0.7 0.1c-0.2-0.1-0.3-0.1-0.4-0.3c-0.2-0.2-0.4-0.6-0.4-0.8q-0.1-0.7 0.1-1.5c0.2-0.8 0.5-2.1 0.6-2.4c0-0.1 0.1-0.2 0.1-0.2c0 0 0.1-0.4 0.2-0.9c0.1-0.5 0.3-1 0.3-1.2c0.1-0.2 0.1-0.5 0.2-0.7c0.1-0.3 0.1-0.5 0.1-0.5c0 0 0.3-0.8 0.4-1.5c0.1-0.2 0.2-0.4 0.2-0.6c0-0.1 0.1-0.4 0.2-0.5c0-0.2 0.2-0.7 0.3-1.2c0.3-1 0.3-1.1 0.8-1.3c0.4-0.1 0.8-0.1 1.2 0q0.3 0.1 0.5 0.3zm-19.6-5c0.2 0.3 0.2 0.7-0.1 1.9c-0.1 0.2-0.2 0.6-0.3 0.9c0 0.3-0.2 0.8-0.3 1c0 0.3-0.1 0.6-0.1 0.6c0 0 0 0.1-0.1 0.3c-0.1 0.2-0.1 0.5-0.1 0.6c-0.1 0.1-0.2 0.4-0.3 0.7c-0.2 0.8-0.2 0.9-0.3 1.3c0 0.2-0.1 0.5-0.2 0.7c-0.1 0.3-0.2 0.7-0.3 1.1c-0.1 0.3-0.2 0.7-0.3 1c0 0.2-0.1 0.4-0.1 0.5c0 0.1-0.1 0.3-0.2 0.6c0 0.2-0.1 0.4-0.1 0.6c-0.1 0.5-0.6 1-1.1 1.2c-0.3 0.1-0.4 0.1-0.6 0q-0.5-0.1-0.8-0.5c-0.1-0.3-0.1-0.3-0.1-0.7c-0.1-0.5 0-1.3 0.6-3.5c0.1-0.4 0.2-0.8 0.2-0.9c0.1-0.1 0.1-0.4 0.2-0.7c0.1-0.3 0.2-0.7 0.3-1c0.3-1.1 0.6-2.1 0.6-2.3c0.1-0.1 0.1-0.3 0.1-0.4c0 0 0.1-0.2 0.2-0.4c0-0.2 0.1-0.5 0.1-0.6c0 0 0.2-0.6 0.3-1.1c0.3-1 0.3-1.1 0.5-1.2c0.1-0.2 0.2-0.2 0.5-0.3q0.6-0.1 1.1 0q0.4 0.2 0.7 0.6zm2.9 1c0.8 0.3 1.3 0.4 1.3 0.4c0.1 0 0.4 0.1 0.7 0.2c0.6 0.1 1.2 0.3 2 0.5c0.3 0.1 0.7 0.2 1 0.3c0.2 0.1 0.6 0.1 0.7 0.2c0.2 0 0.4 0.1 0.6 0.1c0.1 0.1 0.3 0.1 0.3 0.1c0 0 0.2 0.1 0.5 0.2c0.3 0 0.6 0.1 0.6 0.1c0 0 0.2 0.1 0.4 0.1c0.3 0.1 0.8 0.2 1.1 0.3c0.3 0.1 0.8 0.2 1.1 0.3c0.3 0.1 0.5 0.2 0.5 0.2c0 0 1 0.2 1.1 0.3c0 0-0.1 0.5-0.2 1.1c-0.1 0.2-0.2 0.7-0.3 1c-0.1 0.3-0.2 0.6-0.2 0.6c0 0-0.2 0.9-0.4 1.4c0 0.1-0.1 0.4-0.1 0.6c-0.1 0.3-0.2 0.5-0.2 0.6c0 0.1-0.1 0.3-0.1 0.5c-0.1 0.1-0.1 0.5-0.2 0.7c-0.1 0.2-0.2 0.6-0.3 0.9c-0.2 0.9-0.4 1.8-0.6 2.2c0 0.3-0.1 0.5-0.1 0.5c0 0 0 0.2-0.1 0.4c0 0.2-0.1 0.5-0.2 0.7c-0.1 0.4-0.3 1.2-0.3 1.3c0 0-0.2-0.1-0.4-0.1c-0.2-0.1-0.4-0.1-0.4-0.1c0 0-0.1-0.1-0.3-0.1c-0.2-0.1-0.5-0.2-0.8-0.2c-0.2-0.1-0.6-0.2-1-0.3c-0.3-0.1-0.6-0.2-0.7-0.2c-0.1 0-0.4-0.1-0.7-0.2c-0.3-0.1-0.6-0.1-0.6-0.1c0 0-0.3-0.1-0.6-0.2q-0.7-0.2-1.7-0.4c-0.6-0.2-1.2-0.4-1.5-0.5c-0.2 0-0.4-0.1-0.4-0.1c0 0-0.3 0-0.6-0.1c-0.3-0.1-0.8-0.3-1.1-0.3c-0.2-0.1-0.7-0.2-0.9-0.3c-0.3-0.1-0.5-0.1-0.5-0.2c0 0 0-0.1 0.1-0.3c0.1-0.5 0.4-1.5 0.4-1.7c0.1-0.2 0.1-0.3 0.1-0.3c0 0 0.1-0.2 0.1-0.5c0.1-0.3 0.2-0.6 0.2-0.6c0 0 0.2-0.9 0.4-1.3c0-0.1 0.1-0.4 0.1-0.7c0.1-0.2 0.2-0.5 0.2-0.6c0 0 0.1-0.2 0.1-0.4c0.1-0.2 0.1-0.5 0.2-0.7c0.1-0.3 0.2-0.7 0.3-1c0.2-0.8 0.3-1.4 0.5-2c0.1-0.3 0.2-0.6 0.2-0.6c0 0 0.1-0.5 0.4-1.5l0.1-0.2zm13.8 4.2l-0.1 0.4c-0.1 0.2-0.2 0.7-0.3 1c-0.1 0.4-0.2 0.9-0.3 1.2c0 0.3-0.1 0.6-0.2 0.8c0 0.1-0.1 0.3-0.1 0.3c0 0 0 0.2-0.1 0.5c-0.1 0.3-0.1 0.6-0.1 0.6c0 0-0.1 0.2-0.2 0.5c-0.1 0.3-0.1 0.5-0.1 0.6c0 0-0.1 0.1-0.1 0.3c-0.1 0.2-0.2 0.5-0.2 0.7c-0.1 0.3-0.5 2-0.7 2.6c-0.1 0.2-0.1 0.6-0.2 0.7c0 0.3-0.3 1.2-0.3 1.2c0 0-0.2 0-0.4-0.1c-0.8-0.2-1-0.2-1-0.3c0 0 0.1-0.1 0.1-0.2c0.1-0.5 0.8-3.2 0.9-3.5c0-0.1 0.1-0.3 0.1-0.5c0.2-0.6 0.5-1.6 0.5-1.6c0-0.1 0-0.3 0.1-0.7c0.4-1.2 0.4-1.4 0.4-1.4c0 0 0.1-0.3 0.2-0.6c0-0.3 0.1-0.5 0.1-0.5c0 0 0.1-0.3 0.1-0.6c0.2-0.5 0.2-0.6 0.4-1.3q0.1-0.5 0.2-0.4c0 0 0.2 0 0.4 0.1c0.3 0.1 0.6 0.1 0.7 0.2zm-14.8-3.9c0 0 0 0-0.3 1.2c-0.1 0.4-0.2 0.9-0.3 1.2c-0.1 0.3-0.2 0.7-0.2 0.8c-0.1 0.2-0.1 0.3-0.1 0.3c0 0.1-0.1 0.3-0.1 0.5c-0.1 0.3-0.2 0.5-0.2 0.5c0 0.1 0 0.3-0.1 0.6c-0.1 0.3-0.2 0.5-0.2 0.5c0 0.1 0 0.3-0.1 0.6c-0.1 0.3-0.1 0.5-0.1 0.5c0 0-0.1 0.3-0.2 0.5c0 0.3-0.1 0.7-0.2 0.9c-0.1 0.3-0.2 0.7-0.3 1.1c-0.1 0.3-0.2 0.7-0.2 0.8c-0.2 0.6-0.4 1.4-0.4 1.4c0 0-0.2-0.1-0.4-0.2c-0.3 0-0.6-0.1-0.7-0.1c-0.1-0.1-0.2-0.1-0.2-0.1c0-0.1 0-0.2 0-0.3c0-0.1 0.2-0.5 0.3-0.9c0.1-0.4 0.2-0.9 0.3-1.2c0.4-1.5 0.6-2.3 0.6-2.5c0.1-0.1 0.1-0.4 0.2-0.6c0.1-0.2 0.1-0.5 0.1-0.6c0.1-0.1 0.1-0.4 0.2-0.7c0.1-0.2 0.2-0.7 0.3-1c0.1-0.3 0.2-0.8 0.3-1c0-0.2 0.1-0.4 0.1-0.5c0 0 0.5-1.8 0.5-2c0.1-0.1 0.1-0.1 0.3 0c0.3 0 1 0.2 1.1 0.3zm1.7 13.9c0.1 0.1 0.3 0.1 0.4 0.1c0.2 0.1 0.6 0.2 1.6 0.5c0.3 0 0.6 0.1 0.8 0.2c0.2 0 0.4 0.1 0.4 0.1h0.2v0.1c0 0.1-0.1 0.2-0.1 0.3c0 0.1 0 0.2 0 0.2q0 0-0.1 0.1c0 0.1-0.1 0.3-0.1 0.5c-0.1 0.2-0.1 0.4-0.1 0.5q-0.1 0.1-0.1 0.1c0 0 0 0.1 0 0.2c-0.1 0.2-0.2 0.6-0.2 0.7c0 0-0.1 0.1-0.1 0.2c0 0 0 0.1 0 0.2c0 0-0.1 0.1-0.1 0.2c0 0.1-0.1 0.2-0.1 0.4c0 0.1-0.1 0.3-0.1 0.4c-0.1 0.2-0.1 0.4-0.2 0.5c0 0.1 0 0.3-0.1 0.4c0 0.1 0 0.2-0.1 0.3c0 0 0 0.1 0 0.2c-0.1 0.2-0.2 0.5-0.2 0.5q0 0 0 0.2c0 0.1-0.1 0.2-0.1 0.4c0 0-0.1 0.3-0.2 0.4c0 0.2 0 0.3 0 0.3c0 0-0.1 0.1-0.1 0.2c0 0.1-0.1 0.3-0.1 0.4c-0.1 0.5-0.2 0.6-0.2 0.6c0 0-0.3-0.1-0.7-0.2c-0.3-0.1-0.7-0.2-0.8-0.2c-0.2-0.1-1.1-0.3-1.6-0.4c-0.2-0.1-0.4-0.2-0.4-0.2c0 0 0-0.1 0-0.2c0.1-0.1 0.1-0.3 0.2-0.7c0.1-0.1 0.1-0.2 0.1-0.3c0.1-0.3 0.1-0.3 0.2-0.6c0-0.2 0.1-0.3 0.2-0.8c0-0.1 0.1-0.3 0.1-0.4c0.1-0.1 0.1-0.3 0.1-0.4c0.1-0.2 0.2-0.6 0.3-0.9c0-0.1 0.1-0.3 0.1-0.4c0-0.1 0.1-0.3 0.1-0.4c0-0.1 0.1-0.3 0.1-0.4c0.1-0.1 0.1-0.2 0.1-0.2c0-0.1 0-0.2 0.1-0.3c0-0.1 0-0.3 0.1-0.4c0-0.1 0.1-0.3 0.1-0.4c0-0.1 0.1-0.2 0.1-0.2c-0.1 0 0-0.1 0-0.2c0.1-0.3 0.2-0.6 0.2-0.6c0 0 0.1-0.3 0.1-0.6h0.1zm2.2 10.2c0 0-0.1 0.3-0.1 0.6c-0.1 0.4-0.2 0.8-0.3 1c0 0.2-0.1 0.4-0.1 0.4c0 0-0.9-0.2-1.1-0.2c0-0.1-0.2-0.1-0.3-0.1c-0.2-0.1-0.4-0.1-0.6-0.2c-0.4-0.1-0.3-0.1-1.2-0.3c-0.7-0.1-0.8-0.2-2-0.5c-0.3-0.1-0.6-0.1-0.6-0.1q-0.1 0-0.2-0.1h-0.1l0.2-0.7c0.1-0.3 0.1-0.7 0.1-0.7c0.1-0.2 0.2-0.7 0.3-0.7q0 0 0 0c0.1 0.1 0.9 0.3 1.7 0.5c0.4 0 1.4 0.3 1.8 0.4c0.2 0.1 0.4 0.1 0.4 0.1c0 0 0.3 0.1 0.5 0.1c0.2 0.1 0.7 0.2 1 0.3c0.3 0.1 0.6 0.2 0.6 0.2zm-3.1 1.9c0.6 0.1 1.5 0.4 1.5 0.4c0 0-0.1 0.5-0.2 0.9c-0.1 0.1-0.1 0.2-0.1 0.3c0 0-0.1 0.2-0.1 0.4c-0.1 0.2-0.1 0.4-0.1 0.4c0 0-0.1 0.2-0.4 1.2c0 0.3-0.1 0.5-0.1 0.5c0 0 0 0.2-0.1 0.4c-0.1 0.3-0.1 0.4-0.1 0.5q0 0-0.4 1.3c0 0.2-0.1 0.3-0.1 0.3c0 0 0 0.2-0.1 0.5c0 0.2-0.5 1.9-0.6 2.1l-4.1-1.1c0-0.2 0-0.4 0.1-0.5c0-0.1 0.1-0.2 0.1-0.3c0 0 0-0.2 0.1-0.4c0-0.2 0.1-0.4 0.1-0.4c0 0 0-0.2 0.1-0.5c0.1-0.2 0.1-0.4 0.1-0.4c0 0 0.1-0.2 0.1-0.4c0.1-0.2 0.1-0.4 0.1-0.4c0 0 0.1-0.2 0.1-0.4q0.2-0.6 0.4-1.4c0-0.1 0.1-0.5 0.2-0.8c0.3-1.1 0.4-1.4 0.5-1.7c0.2-0.9 0.3-1.2 0.3-1.2c0 0 0.3 0 0.6 0.1c0.6 0.2 0.8 0.2 2.1 0.6z" /><path class="s0" d="m51.5 37v8.4c0 3.1-2.5 5.5-5.6 5.5h-38.9c-3.1 0-5.5-2.4-5.5-5.5v-8.4z" /><text style="transform: matrix(1,0,0,1,2,40)" ><tspan x="0" y="6.1" class="t2">A</tspan><tspan  y="6.1" class="t2">U</tspan><tspan  y="6.1" class="t2">T</tspan><tspan  y="6.1" class="t2">O</tspan><tspan  y="6.1" class="t2">R</tspan><tspan  y="6.1" class="t2">I</tspan><tspan  y="6.1" class="t2">D</tspan><tspan  y="6.1" class="t2">A</tspan><tspan  y="6.1" class="t2">D
</tspan></text><path class="s0" d="m396.9 70.6c0-2.1 1.8-3.9 3.9-3.9h45c2.2 0 4 1.8 4 3.9v45c0 2.2-1.8 4-4 4h-45c-2.1 0-3.9-1.8-3.9-4z" /><path class="s3" d="m399.5 72c0-1.5 1.2-2.7 2.7-2.7h42.3c1.5 0 2.6 1.2 2.6 2.7v42.3c0 1.5-1.1 2.6-2.6 2.6h-42.3c-1.5 0-2.7-1.1-2.7-2.6z" /><path fill-rule="evenodd" class="s0" d="m418.5 73.6q0 0 0 0q0 0 0 0q0 0 0 0c1.2 0 2.3 0.9 3.2 2.5c1 1.5 1.7 3.7 2.3 6.5c2.6-0.9 4.8-1.4 6.6-1.4c2 0.1 3.3 0.6 3.9 1.6q0.3 0.6 0.3 1.3q0 1.3-0.9 2.8c-0.8 1.6-2.4 3.3-4.5 5.2c2.1 1.8 3.7 3.5 4.6 5.1q0 0 0 0q0 0 0 0q0 0 0 0q0 0 0 0q0.8 1.6 0.8 2.8q0 0.7-0.3 1.3c-0.6 1-1.9 1.5-3.8 1.5c-1.8 0.1-4.1-0.4-6.7-1.3c-0.6 2.7-1.3 4.9-2.2 6.5q0 0 0 0q0 0 0 0q0 0 0 0q0 0 0 0c-1 1.6-2.1 2.5-3.3 2.5c-1.2 0-2.3-0.9-3.3-2.5q0 0 0 0q0 0 0 0q0 0 0 0q0 0 0 0c-0.9-1.6-1.6-3.8-2.2-6.5c-2.6 0.9-4.9 1.4-6.7 1.4q0 0 0 0q0 0 0 0q0 0 0 0q0 0 0 0c-1.9-0.1-3.2-0.6-3.8-1.6q0 0 0 0q0 0 0 0q0 0 0 0q0 0 0 0q-0.3-0.6-0.3-1.3q0-1.2 0.8-2.8q0 0 0 0q0 0 0 0q0 0 0 0q0 0 0 0c0.9-1.6 2.5-3.3 4.6-5.1c-2.1-1.9-3.6-3.6-4.5-5.2q-0.9-1.6-0.9-2.8q0-0.7 0.3-1.3q0 0 0 0q0 0 0 0q0 0 0 0q0 0 0 0c0.6-1 1.9-1.5 3.9-1.6c1.8 0 4 0.5 6.6 1.4c0.6-2.8 1.3-5 2.3-6.5c0.9-1.5 1.9-2.1 2.9-2.3q0 0 0 0q0 0 0 0q0 0 0 0q0 0 0 0q0 0 0.1-0.1q0 0 0-0.1q0 0 0.1 0q0 0 0.1 0q0 0 0 0zm-1 2.3q-0.5 0.5-1.1 1.6c-0.7 1.3-1.2 3.2-1.7 5.7q1.9 0.7 3.8 1.6q1.9-0.9 3.8-1.6c-0.5-2.5-1-4.4-1.7-5.7q-0.6-1.1-1.1-1.6q-0.5-0.5-1-0.5c-0.3 0-0.6 0.2-1 0.5zm-12.4 7.2c-0.5 0.2-0.8 0.4-0.9 0.6q0 0 0 0q0 0 0 0q0 0 0 0q0 0-0.1 0q-0.2 0.5-0.1 1.2q0.2 0.7 0.9 1.7q0 0 0 0q0 0 0 0q0 0 0 0q0 0 0 0c0.8 1.3 2.2 2.7 4.1 4.3q1.5-1.3 3.3-2.5q0.1-2 0.4-4c-2.3-0.9-4.2-1.4-5.7-1.5q-0.3 0-0.6 0q-0.8 0-1.3 0.2zm24.9-0.2c-1.5 0.1-3.5 0.6-5.7 1.5q0.3 2 0.4 4q1.8 1.2 3.3 2.5c1.9-1.6 3.3-3 4.2-4.3q0 0 0 0q0 0 0 0q0 0 0 0q0 0 0 0q0.6-1 0.8-1.7c0.1-0.5 0-0.9-0.1-1.2q-0.3-0.4-0.9-0.6q-0.6-0.2-1.4-0.2q-0.3 0-0.6 0zm-9.4 3q0.5 0.3 1.1 0.6q0 0 0 0q0 0 0 0q0 0 0 0q0 0 0 0q0.5 0.4 1.1 0.7q-0.1-1.1-0.3-2.2q-0.9 0.4-1.9 0.9zm-6.4 1.3q0.6-0.3 1.1-0.7q0 0 0 0q0 0 0 0q0 0 0 0q0 0 0 0q0.6-0.3 1.1-0.6q-1-0.5-1.9-0.9q-0.2 1.1-0.3 2.2zm2.1 0.9q0 0 0 0q0 0 0 0q0 0 0 0q0 0 0 0q-1.2 0.7-2.2 1.4q-0.1 1.2-0.1 2.6q0 1.3 0.1 2.5q1 0.7 2.2 1.3q0 0 0 0q0 0 0 0q0 0 0 0q0 0 0 0q1.1 0.7 2.2 1.3q1.1-0.6 2.2-1.3q0 0 0 0q0 0 0 0q0 0 0 0q0 0 0 0q1.2-0.6 2.2-1.3q0.1-1.2 0.1-2.5q0-1.4-0.1-2.6q-1-0.7-2.2-1.4q-1.1-0.6-2.2-1.2q-1.1 0.6-2.2 1.2zm3.3 2.1q0.5 0.2 0.8 0.8q0.3 0.5 0.3 1.1q0 0.5-0.3 1q0 0 0 0q0 0 0 0q0 0 0 0q0 0 0 0q-0.3 0.5-0.8 0.8q-0.5 0.3-1.1 0.3q-0.6 0-1.1-0.3q-0.5-0.3-0.8-0.8q0 0 0 0q0 0 0 0q0 0 0 0q0 0 0 0q-0.2-0.5-0.3-1q0-0.6 0.3-1.1q0.3-0.6 0.8-0.8q0.5-0.3 1.1-0.3q0.6 0 1.1 0.3zm-9.2 1.9q0.8 0.6 1.7 1.2q0-0.6 0-1.2q0-0.7 0-1.3q-0.9 0.6-1.7 1.3zm14.5 0q0 0.6-0.1 1.2q1-0.6 1.8-1.2q-0.8-0.7-1.8-1.3q0.1 0.6 0.1 1.3zm-20.1 5.4q0 0 0 0q0 0 0 0q0 0 0 0q0 0 0 0q-0.6 1.1-0.8 1.8q-0.1 0.7 0.1 1c0.2 0.3 0.5 0.5 0.9 0.7q0.7 0.2 1.9 0.1c1.5 0 3.5-0.5 5.8-1.4q-0.3-2-0.4-4q-1.8-1.2-3.4-2.5c-1.9 1.6-3.3 3.1-4.1 4.3zm19.9-1.8q-0.1 2-0.4 4c2.3 0.9 4.3 1.4 5.8 1.4q1.2 0.1 1.9-0.1q0.7-0.2 0.9-0.7q0 0 0 0q0 0 0 0q0 0 0 0q0 0 0 0c0.1-0.2 0.2-0.6 0.1-1q-0.2-0.7-0.8-1.8q0 0 0 0q0 0 0 0q0 0 0 0q0 0 0 0c-0.8-1.2-2.2-2.7-4.1-4.3q-1.6 1.3-3.4 2.5zm-10.3 3.4q1-0.5 2-0.9q-0.5-0.3-1.1-0.6q-0.5-0.4-1.1-0.7q0.1 1.1 0.2 2.2zm7.3-1.5q0 0 0 0q0 0 0 0q0 0 0 0q0 0 0 0q-0.6 0.3-1.1 0.6q1 0.4 1.9 0.9q0.2-1.1 0.3-2.2q-0.6 0.3-1.1 0.7zm-7 3.3c0.4 2.4 1 4.4 1.7 5.7q0.5 1.1 1.1 1.6q0.5 0.5 1 0.4c0.3 0 0.7-0.1 1-0.4q0.5-0.5 1.1-1.6q0 0 0 0q0 0 0 0q0 0 0 0q0 0 0 0c0.7-1.3 1.2-3.3 1.7-5.7q-1.9-0.7-3.8-1.7q-1.9 1-3.8 1.7z" /><path class="s0" d="m448.3 103.7v8.4c0 3-2.4 5.5-5.5 5.5h-38.9c-3.1 0-5.6-2.5-5.6-5.5v-8.4z" /><path fill-rule="evenodd" class="s4" d="m404.4 107.3q1.1 0 1.7 0.6q0.6 0.5 0.6 1.5q0 1-0.6 1.5q-0.6 0.6-1.7 0.6h-1.3v1.8h-1.1v-6zm-0.1 3.2q0.7 0 1-0.3q0.3-0.2 0.3-0.8q0-0.5-0.3-0.8q-0.3-0.3-1-0.3h-1.2v2.2z" /><path fill-rule="evenodd" class="s4" d="m410.9 113.3l-1.1-1.8q0 0-0.2 0h-1.3v1.8h-1.1v-6h2.4q1.2 0 1.8 0.6q0.6 0.5 0.6 1.5q0 0.7-0.3 1.2q-0.3 0.4-0.8 0.7l1.3 2zm-2.6-2.8h1.3q0.7 0 1-0.3q0.3-0.2 0.3-0.8q0-0.5-0.3-0.8q-0.3-0.3-1-0.3h-1.3z" /><path fill-rule="evenodd" class="s4" d="m415.4 107.2q0.9 0 1.6 0.4q0.8 0.4 1.2 1.1q0.4 0.7 0.4 1.6q0 0.8-0.4 1.5q-0.4 0.7-1.2 1.1q-0.7 0.4-1.6 0.4q-0.8 0-1.6-0.4q-0.7-0.4-1.1-1.1q-0.4-0.7-0.4-1.5q0-0.9 0.4-1.6q0.4-0.7 1.1-1.1q0.8-0.4 1.6-0.4zm0.1 1.1q-0.6 0-1.1 0.2q-0.4 0.3-0.7 0.8q-0.3 0.4-0.3 1q0 0.5 0.3 1q0.3 0.5 0.7 0.7q0.5 0.3 1.1 0.3q0.5 0 0.9-0.3q0.5-0.2 0.8-0.7q0.2-0.5 0.2-1q0-0.6-0.2-1q-0.3-0.5-0.8-0.8q-0.4-0.2-0.9-0.2z" /><path class="s4" d="m422.9 110.3h1v2.3q-0.5 0.3-1.1 0.5q-0.7 0.2-1.3 0.2q-0.8 0-1.6-0.4q-0.7-0.4-1.1-1.1q-0.4-0.7-0.4-1.5q0-0.9 0.4-1.6q0.4-0.6 1.2-1q0.7-0.5 1.6-0.5q0.6 0 1.3 0.3q0.6 0.2 1 0.6l-0.6 0.8q-0.4-0.3-0.8-0.5q-0.5-0.1-0.9-0.1q-0.6 0-1 0.2q-0.5 0.3-0.8 0.8q-0.2 0.4-0.2 1q0 0.5 0.2 1q0.3 0.5 0.8 0.7q0.4 0.3 1 0.3q0.3 0 0.6-0.1q0.4-0.1 0.7-0.3z" /><path fill-rule="evenodd" class="s4" d="m428.4 113.3l-1.1-1.8q0 0-0.2 0h-1.3v1.8h-1.1v-6h2.4q1.2 0 1.8 0.6q0.6 0.5 0.6 1.5q0 0.7-0.3 1.2q-0.3 0.4-0.8 0.7l1.3 2zm-2.6-2.8h1.3q0.7 0 1-0.3q0.3-0.2 0.3-0.8q0-0.5-0.3-0.8q-0.3-0.3-1-0.3h-1.3z" /><path class="s4" d="m430.2 107.3h4.4v1h-3.2v1.5h2.9v1h-2.9v1.5h3.3v1h-4.5z" /><path class="s4" d="m439 108.8q-0.4-0.2-0.9-0.4q-0.5-0.1-0.8-0.1q-0.5 0-0.7 0.1q-0.2 0.2-0.2 0.4q0 0.3 0.1 0.5q0.2 0.1 0.4 0.2q0.3 0.1 0.7 0.3q0.6 0.1 1 0.3q0.4 0.2 0.7 0.5q0.2 0.4 0.2 1q0 0.5-0.3 0.9q-0.2 0.4-0.8 0.6q-0.5 0.2-1.1 0.2q-0.7 0-1.4-0.2q-0.6-0.3-1.1-0.7l0.4-1q0.5 0.4 1.1 0.7q0.5 0.2 1 0.2q0.5 0 0.7-0.2q0.3-0.2 0.3-0.5q0-0.2-0.2-0.4q-0.1-0.2-0.4-0.3q-0.2-0.1-0.7-0.2q-0.6-0.2-1-0.3q-0.3-0.2-0.6-0.6q-0.3-0.3-0.3-0.9q0-0.5 0.3-0.9q0.3-0.3 0.8-0.6q0.5-0.2 1.1-0.2q0.6 0 1.2 0.2q0.5 0.2 1 0.5z" /><path class="s4" d="m443.8 108.8q-0.4-0.2-0.9-0.4q-0.5-0.1-0.9-0.1q-0.4 0-0.6 0.1q-0.2 0.2-0.2 0.4q0 0.3 0.1 0.5q0.2 0.1 0.4 0.2q0.3 0.1 0.7 0.3q0.6 0.1 1 0.3q0.4 0.2 0.7 0.5q0.2 0.4 0.2 1q0 0.5-0.3 0.9q-0.2 0.4-0.8 0.6q-0.5 0.2-1.1 0.2q-0.7 0-1.4-0.2q-0.6-0.3-1.1-0.7l0.4-1q0.5 0.4 1 0.7q0.6 0.2 1.1 0.2q0.5 0 0.7-0.2q0.3-0.2 0.3-0.5q0-0.2-0.2-0.4q-0.1-0.2-0.4-0.3q-0.2-0.1-0.7-0.2q-0.6-0.2-1-0.3q-0.3-0.2-0.6-0.6q-0.3-0.3-0.3-0.9q0-0.5 0.3-0.9q0.3-0.3 0.8-0.6q0.5-0.2 1.1-0.2q0.6 0 1.2 0.2q0.5 0.2 1 0.5z" /><text style="transform: matrix(1,0,0,1,-257.489,-71.03)" ><tspan x="-9" y="0" class="t2">ORD
</tspan></text></svg>