<svg version="1.2" xmlns="http://www.w3.org/2000/svg" viewBox="0 0 53 53" width="53" height="53"><style>tspan{white-space:pre}.s0{fill:#222222}.s1{fill:#f44336}.t2{font-size: 8px;fill: #eeeeee;font-family: "Montserrat"}</style><path class="s0" d="m0 4c0-2.2 1.8-4 4-4h44.9c2.2 0 4 1.8 4 4v44.9c0 2.2-1.8 4-4 4h-44.9c-2.2 0-4-1.8-4-4z" /><path class="s1" d="m2.6 5.3c0-1.5 1.2-2.7 2.7-2.7h42.3c1.5 0 2.7 1.2 2.7 2.7v42.3c0 1.5-1.2 2.7-2.7 2.7h-42.3c-1.5 0-2.7-1.2-2.7-2.7z" /><path fill-rule="evenodd" class="s0" d="m24.6 6.8c0.2 0.3 0.2 0.5 0.2 0.9c0 0.4 0 0.7-0.2 1q-0.4 1-1.4 1.3h-0.1v1.4c0 0.4 0 0.8 0 1.1q0 0.1 0 0.2q0.2 0 0.5-0.1c0.4-0.1 0.9-0.3 1.4-0.4c1.8-0.6 2.4-0.7 3.4-0.8c0.5 0 0.9 0.1 1.3 0.3c0.4 0.3 0.9 0.7 1.5 1.3c0.5 0.5 0.8 0.7 1 0.9c0.2 0.1 0.4 0.2 0.6 0.3q0.1 0 0.1 0q0-0.1 0-0.2v-0.4h1.2v0.3c0.2 0 0.3-0.1 0.5-0.2c0.3-0.1 0.5-0.3 0.7-0.4l0.8-0.7l-0.1 0.9c-0.2 1-0.9 1.8-1.9 2.1c0 0 0 0.1 0 0.2h0.9l0.4 1.2c0.7 2.3 1.3 4.1 1.5 4.6c0 0.2 0.3 0.9 0.4 1.5c0.2 0.6 0.4 1.2 0.5 1.3c0 0.2 0.2 0.9 0.4 1.5c0.2 0.6 0.5 1.3 0.5 1.5l0.1 0.2h2.3l-0.5 0.6c-0.7 0.8-1.3 1.3-2.3 1.8c-0.8 0.4-1.4 0.6-2.3 0.8c-2 0.4-4.5 0.3-6.4-0.3c-1.4-0.5-2.7-1.3-3.4-2.3l-0.5-0.6h1.6l0.9-0.1l0.1-0.3c0.1-0.2 0.5-1.4 0.8-2.6c0.4-1.1 0.8-2.4 1-2.9c0.2-0.5 0.6-1.8 1-2.9c0.3-1.2 0.7-2.3 0.8-2.5l0.1-0.5h0.7c0.1 0 0.2 0 0.2 0q0 0 0 0c0 0 0 0-0.2 0c-0.9-0.1-1.8-0.3-2.7-1c-0.9-0.5-1.2-0.7-1.5-0.7c-0.5-0.1-1 0-2 0.6c-1.7 0.9-2.3 1.2-3 1.3l-0.2 0.1v6.2l0.4 1c0.3 0.5 0.6 1.1 0.6 1.2l0.2 0.3v4l0.1 3.6h1.2l1.8 0.1v1.4l0.7 1c0.4 0.6 0.8 1.1 0.9 1.2c0 0 0.2 0.3 0.4 0.5c0.2 0.3 0.5 0.8 0.8 1.1q0.2 0.3 0.3 0.5q0.1 0.1 0.2 0.2q0 0 0 0q0 0.1 0 0.1q0 0 0 0q0 0 0 0c0 0 0 0.1 0 0.1c0 0 0 0.2 0 0.2c0 0-0.1 0-0.1 0c0 0-0.1 0-0.1 0q0 0 0 0q0 0 0 0q-0.1 0-0.2 0q-0.1 0.1-0.4 0.1q-0.6 0-1.7 0c-1.5 0-3.4 0-5.6 0h-8.3l0.3-0.5c0.1-0.2 0.3-0.6 0.6-1c0.2-0.4 0.8-1.4 1.2-2.1l0.8-1.3v-1.5h3.5v-3.6l-0.1-3.9l0.7-1.3l0.6-1.3v-3.2l0.1-3.1h-0.1c-0.4-0.1-1.3-0.4-1.8-0.6c-0.2-0.1-0.7-0.4-1.1-0.6c-1.2-0.7-1.5-0.8-2-0.8c-0.3 0-0.5 0-0.7 0.1c-0.2 0-0.5 0.2-1 0.5c-0.7 0.5-1.2 0.8-1.8 0.9q-0.2 0.1-0.4 0.1q-0.3 0-0.7 0l-0.5 0.1h0.3h0.6l0.5 1.7c0.3 0.8 0.7 2.1 1 3c0.3 0.8 0.6 1.7 0.6 1.8c0.1 0.2 0.3 0.9 0.5 1.5c0.2 0.6 0.5 1.6 0.7 2.1c0.1 0.6 0.3 1.2 0.4 1.4l0.1 0.3h0.8h1.5l-0.7 0.8q-1.5 1.8-4.6 2.4c-0.8 0.2-1 0.2-2.4 0.2c-1.5 0-1.6 0-2.4-0.2c-2.2-0.4-3.6-1.1-4.8-2.5l-0.6-0.7h2.6l0.4-1.3c0.3-0.8 0.8-2.4 1.1-3.5c0.4-1.2 0.9-2.8 1.2-3.6c0.3-0.8 0.6-1.8 0.8-2.3l0.3-1.1h0.9v-0.3l-0.2-0.1c-0.7-0.4-1.2-1.1-1.3-1.9q-0.1-0.1-0.1-0.2c0 0 0-0.1 0.1-0.2q0 0 0 0c0 0 0 0 0 0c0 0 0.1-0.1 0.1-0.1c0 0 0.1 0 0.1 0q0.1 0 0.1 0c0.1 0.1 0.1 0.1 0.2 0.2q0.1 0 0.3 0.2c0.1 0.1 0.3 0.2 0.5 0.3q0.1 0.1 0.2 0.1v-0.2h1.2v0.4q0 0.1 0 0.2q0 0 0.2 0c0.3 0 0.5-0.1 0.7-0.2c0.3-0.2 0.6-0.4 1-0.9c0.7-0.6 1-0.9 1.3-1.2c0.3-0.2 0.6-0.3 0.9-0.4c0.9-0.2 2.1 0 4.1 0.6c0.5 0.2 1 0.3 1.3 0.4q0.3 0.1 0.5 0.2q0 0 0 0c0-0.2 0-0.6 0-1.3q0-0.7 0-1.1q0-0.2 0-0.3q-0.1 0-0.2 0q-0.3-0.1-0.6-0.3c-0.3-0.2-0.7-0.6-0.9-1c-0.2-0.3-0.2-0.5-0.2-1c0-0.4 0-0.6 0.2-0.9c0.4-1 1.2-1.4 2.1-1.4c0.9 0 1.7 0.5 2.1 1.4zm-12.5 7.4q0 0 0 0q0 0 0 0zm20 5.5c-0.5 1.3-0.9 2.8-1.2 3.5c-0.5 1.6-0.9 2.6-1.2 3.7q-0.1 0.3-0.2 0.6q0 0 0 0.1c0 0 0 0 0.1 0q0.4 0 1.5 0c0.9 0 1.4 0 1.7 0c0 0 0.1 0 0.1-0.1q0-0.1 0-0.2q0-0.5 0-1.2c0-1 0-2.3 0-3.8c0-2.4 0-3.8 0-4.5c0-0.4 0-0.6 0-0.7c0 0.1-0.4 1.2-0.8 2.6zm-21.4-2.1c-0.1 0.3-0.4 1.3-0.6 2c-0.3 0.8-0.8 2.4-1.2 3.6c-0.4 1.1-0.9 2.6-1.1 3.3c-0.1 0.4-0.2 0.7-0.3 0.9q0 0.1 0 0.2q0.1 0 0.3 0c0.3 0 0.8 0 1.4 0h1.7v-5.3v-5.1q-0.1 0.2-0.2 0.4zm1.4-0.2c0 0.6 0 2 0 4.9c0 1.5 0 2.8 0 3.8q0 0.7 0 1.2q0 0.1 0 0.2c0.1 0.1 0.1 0.1 0.2 0.1c0.2 0 0.7 0 1.6 0c0.5 0 1 0 1.3 0q0.2 0 0.3 0c-0.1-0.2-0.3-1-0.6-1.8c-0.2-0.8-0.7-2.2-0.9-3c-0.3-0.8-0.7-2.2-1-3c-0.4-1.4-0.7-2.1-0.8-2.5c0 0 0 0-0.1-0.1c0 0.1 0 0 0 0.2zm22.1-0.1c-0.1 0.6-0.1 2-0.1 5v5.3h1.7c0.9 0 1.3 0 1.6 0q0 0 0.1 0q0-0.1-0.1-0.1q0-0.3-0.2-0.9q-0.4-1.1-1.1-3.2c-0.6-2.1-1.1-3.6-1.3-4.1c-0.3-1.2-0.5-1.8-0.6-2.1q0 0 0 0q0 0.1 0 0.1z" /><path class="s0" d="m51.5 37v8.4c0 3.1-2.5 5.5-5.6 5.5h-38.9c-3.1 0-5.5-2.4-5.5-5.5v-8.4z" /><text style="transform: matrix(1,0,0,1,-315.929,-68.298)" ><tspan x="-9" y="0" class="t2">ORD
</tspan></text><text style="transform: matrix(1,0,0,1,3,40)" ><tspan x="2" y="6.1" class="t2">I</tspan><tspan  y="6.1" class="t2">G</tspan><tspan  y="6.1" class="t2">U</tspan><tspan  y="6.1" class="t2">A</tspan><tspan  y="6.1" class="t2">L</tspan><tspan  y="6.1" class="t2">D</tspan><tspan  y="6.1" class="t2">A</tspan><tspan  y="6.1" class="t2">D
</tspan></text></svg>