<svg version="1.2" xmlns="http://www.w3.org/2000/svg" viewBox="0 0 53 53" width="53" height="53"><style>tspan{white-space:pre}.s0{fill:#222222}.s1{fill:#03a9f4}.t2{font-size: 8px;fill: #eeeeee;font-family: "Montserrat"}</style><path class="s0" d="m0 4c0-2.2 1.8-4 4-4h44.9c2.2 0 4 1.8 4 4v44.9c0 2.2-1.8 4-4 4h-44.9c-2.2 0-4-1.8-4-4z" /><path class="s1" d="m2.6 5.3c0-1.5 1.2-2.7 2.7-2.7h42.3c1.5 0 2.7 1.2 2.7 2.7v42.3c0 1.5-1.2 2.7-2.7 2.7h-42.3c-1.5 0-2.7-1.2-2.7-2.7z" /><path fill-rule="evenodd" class="s0" d="m24.7 5.2c3.9 0.3 7.3 1.7 10.3 4.2c0.5 0.4 1.7 1.6 2.2 2.2q2.2 2.7 3.3 5.9c0.6 1.9 0.9 3.7 0.9 5.8c0 1 0 1.6-0.2 2.6c-0.8 5.9-4.5 11-9.8 13.7c-2.1 1-4.2 1.6-6.5 1.8c-0.6 0.1-2 0.1-2.4 0.1c-0.1 0-0.4 0-0.7 0c-3-0.3-6.1-1.3-8.6-3c-1.1-0.7-1.9-1.4-2.8-2.3c-0.4-0.4-0.9-0.9-1.1-1.2q-3.7-4.4-4.2-10.2c-0.1-0.7-0.1-2.4 0-3.2q0.6-5.6 4.1-9.9c0.5-0.7 1.8-1.9 2.4-2.4c3-2.4 6.3-3.8 10.1-4.1c0.4-0.1 0.9-0.1 1.5-0.1c0.6 0 1.2 0 1.5 0.1zm-8.8 3.9c-1.6 0.8-3 1.9-4.3 3.2q0 0.1-0.1 0.2q0.1 0 0.3 0.1c0.3 0.2 0.7 0.4 1 0.6c0.4 0.2 1 0.5 1.4 0.7q0.4 0.2 0.7 0.3q0 0 0 0q0.1-0.1 0.2-0.3c0.3-0.7 0.8-1.8 1.2-2.4c0.8-1.2 1.8-2.5 2.7-3.5c-1 0.2-2.2 0.6-3.1 1.1zm14.3 2.6c0.3 0.4 1 1.9 1.3 2.4v0.1h0.2c0.2-0.1 0.7-0.3 1-0.5c0.4-0.2 0.9-0.4 1.1-0.5c0.2-0.2 0.5-0.4 0.8-0.5q0.2-0.2 0.3-0.2q0-0.1-0.1-0.1q-0.2-0.3-0.7-0.8c-1.8-1.7-4.2-3-6.6-3.6c0.9 1 1.9 2.4 2.7 3.7zm-8.3-3.5c-0.4 0.3-0.7 0.7-0.9 0.9c-1.4 1.4-2.4 2.8-3.3 4.5c-0.1 0.3-0.3 0.7-0.5 1q-0.1 0.2-0.2 0.4q0.1 0 0.3 0.1c0.3 0.1 0.7 0.2 1.1 0.3c1.1 0.2 2.8 0.4 3.7 0.5v-4.1c0-1.2 0-2.3 0-3.1c0-0.3 0-0.5 0-0.7q-0.1 0.1-0.2 0.2zm2.5 0.4c-0.1 0.8-0.1 1.8-0.1 3.2v4.1c0.2 0 0.5 0 0.7-0.1c1.4-0.1 2.8-0.4 4.1-0.7q0.2-0.1 0.3-0.1q-0.1-0.2-0.2-0.4c-0.1-0.3-0.3-0.7-0.5-1c-0.9-1.8-2-3.3-3.4-4.7c-0.2-0.2-0.5-0.5-0.8-0.8q-0.1 0-0.1-0.1c0 0.2 0 0.3 0 0.6zm-15.4 7.4c-0.7 1.3-1.2 2.9-1.5 4.4c-0.1 0.6-0.2 1.2-0.2 1.7v0.1h2.9h2.8c0.1-1.8 0.5-3.8 1-5.5c0.1-0.2 0.1-0.3 0.1-0.3c0-0.1 0-0.1-0.1-0.1c-1.2-0.5-2.6-1.2-3.7-2q-0.1 0-0.2-0.1c-0.3 0.4-0.8 1.2-1.1 1.8zm27.2-1.7c-1.1 0.8-2.5 1.5-3.7 2q-0.1 0-0.2 0.1c0.2 0.3 0.5 1.5 0.6 2.1c0.3 1.2 0.5 2.9 0.5 3.7q0 0 0 0q0 0 0 0q0.3 0 0.7 0c0.6 0 1.3 0 2.2 0h2.8c0-0.5-0.2-1.9-0.4-2.8c-0.4-1.8-1.2-3.5-2.4-5.2q0 0.1-0.1 0.1zm-7.3 2.9c-1.3 0.3-2.6 0.5-4.4 0.7h-0.4v2.2c0 1.3 0 2.3 0 2.3c0 0 0.8 0 3.7 0h3.6v-0.3c0-1.3-0.4-3.4-0.9-4.8c-0.1-0.5-0.1-0.5-0.2-0.5c-0.3 0.1-0.9 0.3-1.4 0.4zm-12.7 0.1c-0.3 1-0.6 2.4-0.8 3.5c0 0.4-0.1 0.8-0.1 1.1q0 0.2 0 0.3q0 0 0 0q0.3 0 0.7 0c0.7 0 1.6 0 2.7 0h3.4v-4.1h-0.1c-2.1-0.1-4-0.5-5.7-1c-0.1 0-0.1 0.1-0.1 0.2zm-8.9 7.2c0.1 1.9 0.8 4.2 1.6 5.9c0.2 0.4 0.6 1 0.8 1.4q0.2 0.4 0.4 0.6q0 0 0 0q0.1 0 0.1-0.1c1-0.6 2.5-1.4 3.6-1.9q0.2-0.1 0.3-0.1l-0.1-0.2c-0.5-1.6-0.8-3.3-0.9-4.9c0-0.3-0.1-0.7-0.1-0.8h-5.7zm8 0.1c0.1 1.2 0.3 2.5 0.6 3.7c0.1 0.4 0.1 0.7 0.2 1q0.1 0.1 0.1 0.2q0.1 0 0.1 0l0.2-0.1c1.8-0.5 3.4-0.8 5.4-0.9h0.2v-4.1h-3.4h-3.4zm12.5-0.2l-3.5 0.1v4h0.2c2.1 0.2 4.1 0.5 5.7 1q0 0 0 0q0.1 0 0.1-0.2c0.5-1.5 0.8-3.1 0.8-4.7l0.1-0.2zm5.6 0.6c-0.1 1.5-0.5 3.5-1 5.1v0.2q0.1 0 0.2 0.1c1.2 0.5 2.7 1.3 3.7 2q0 0 0 0q0.1-0.1 0.2-0.2c1.4-2.2 2.3-4.5 2.6-7.2c0-0.2 0-0.5 0-0.6h-5.7c0 0.1 0 0.4 0 0.6zm-11.5 5.8c-1.1 0-2.7 0.3-3.9 0.6q-0.6 0.1-1 0.2q0 0-0.1 0.1q0.1 0.1 0.2 0.3c0.1 0.2 0.3 0.6 0.4 0.8c1 2 2.3 3.7 3.8 5.3c0.3 0.2 0.6 0.5 0.8 0.7q0 0 0 0c0-0.2 0-0.4 0-0.8c0-0.7 0-1.7 0-2.9v-4.3zm2.5 4.1c0 2.1 0 3.2 0 3.8c0 0.1 0 0.1 0 0.1q0.1-0.1 0.2-0.2c1.9-1.8 3.6-4.1 4.7-6.4q0.1-0.4 0.2-0.6q0 0 0 0q-0.3-0.1-0.7-0.2c-0.6-0.1-1.2-0.3-1.8-0.4c-0.8-0.1-1.7-0.2-2.4-0.2l-0.2-0.1zm-10.1-2.2c-0.3 0.1-0.7 0.3-0.9 0.4c-0.5 0.3-1 0.6-1.4 0.8q-0.3 0.2-0.5 0.3q0.2 0.2 0.4 0.4c0.4 0.3 0.7 0.7 0.8 0.8c1.6 1.3 3.4 2.4 5.3 3c0.3 0.1 0.6 0.2 0.9 0.3c-1.6-1.8-3-3.9-3.9-6c-0.1-0.2-0.1-0.2-0.1-0.3q-0.2 0.1-0.6 0.3zm17.2 0c-0.9 2.1-2.3 4.1-3.8 5.9c2.2-0.6 4.5-1.8 6.2-3.4c0.2-0.2 0.5-0.5 0.8-0.7q0.1-0.2 0.3-0.3q-0.3-0.2-0.8-0.5c-0.4-0.2-1-0.5-1.5-0.8c-0.5-0.2-0.9-0.4-1.1-0.5c0 0.1 0 0.1-0.1 0.3z" /><path class="s0" d="m51.5 37v8.4c0 3.1-2.5 5.5-5.6 5.5h-38.9c-3.1 0-5.5-2.4-5.5-5.5v-8.4z" /><text style="transform: matrix(1,0,0,1,10,41)" ><tspan x=".5" y="6.1" class="t2">G</tspan><tspan  y="6.1" class="t2">L</tspan><tspan  y="6.1" class="t2">O</tspan><tspan  y="6.1" class="t2">B</tspan><tspan  y="6.1" class="t2">A</tspan><tspan  y="6.1" class="t2">L
</tspan></text></svg>