<svg version="1.2" xmlns="http://www.w3.org/2000/svg" viewBox="0 0 53 53" width="53" height="53"><style>tspan{white-space:pre}.s0{fill:#222222}.s1{fill:#ffeb3b}.s2{fill:#3f51b5}.s3{fill:#eeeeee}.s4{fill:#03a9f4}.t5{font-size: 4px;fill: #eeeeee;font-family: "Montserrat"}.s6{fill:#00897b}.s7{fill:#8bc34a}.s8{fill:#9c27b0}.t9{font-size: 8px;fill: #eeeeee;font-family: "Montserrat"}</style><path class="s0" d="m0 4c0-2.2 1.8-4 4-4h44.9c2.2 0 4 1.8 4 4v44.9c0 2.2-1.8 4-4 4h-44.9c-2.2 0-4-1.8-4-4z" /><path class="s1" d="m2.6 5.3c0-1.5 1.2-2.7 2.7-2.7h42.3c1.5 0 2.7 1.2 2.7 2.7v42.3c0 1.5-1.2 2.7-2.7 2.7h-42.3c-1.5 0-2.7-1.2-2.7-2.7z" /><path fill-rule="evenodd" class="s0" d="m21.7 43c-0.4-0.1-1.4-0.4-1.6-0.5c-0.1-0.1-0.4-0.2-0.6-0.3c-1-0.3-1.8-0.9-2.3-1.6c-0.7-0.9-3-5-3-5.3c0-0.1 0.1-0.3 0.2-0.5c0.5-0.7 0.7-1.6 0.6-2.1c-0.1-0.2-0.1-0.4-0.1-0.5c0-0.3-0.1-0.3-0.8-0.4c-0.3 0-0.7-0.1-0.8-0.1c-0.1-0.1-0.1-0.1-0.1-0.4c0-0.2 0-0.4 0-0.4c0.1 0 0.1-0.2 0.1-0.7c-0.2-2.2 0-3.1 0.9-4.1l0.2-0.2l-0.4-1c-0.4-0.9-1.3-3.2-1.5-3.8c-0.1-0.4-0.3-1.4-0.4-2c0-0.4-0.1-0.8-0.1-0.9c-0.1-0.1-0.1-0.5-0.1-0.9c0-0.3 0-0.8 0-1l-0.1-0.4l-0.2 0.2c-0.3 0.3-0.6 0.5-0.9 0.5c0-0.1-0.2-0.2-0.4-0.3l-0.3-0.3v-0.5c0-0.3 0-0.6 0-0.6c-0.1 0-0.1-0.7 0-0.9q0.2-0.2-0.1-0.6c-0.1-0.1-0.1-0.2-0.1-0.3c0 0-0.1-0.1-0.1-0.2c-0.1-0.2-0.1-0.2 0-0.6c0-0.2 0.1-0.5 0.1-0.7c0-0.2 0-0.2-0.4-0.3c-0.4-0.2-0.6-0.4-0.8-0.8c-0.2-0.3-0.2-0.4-0.2-1c0-0.7 0-0.8 0.2-1.3c0.2-0.6 0.6-1.2 1.1-1.5c0.2-0.2 0.3-0.3 0.4-0.6q0.1-0.8 0.9-1.2c0.2-0.2 0.4-0.2 1-0.3c0.4 0 0.8 0 0.9-0.1c0.1 0 0.1 0 0.2 0.2c0.2 0.2 0.6 0.4 0.9 0.4c0.1 0 0.1 0 0 0.3c0 0.3 0.1 0.4 0.4 0.4c0.1 0 0.4 0 0.5 0c0.3 0.1 0.7 0 0.9-0.2c0.2-0.2 0.2-0.1 0.2 0.3c0 0.5-0.2 0.9-0.4 0.9c-0.2 0-0.5 0.2-0.7 0.4q-0.2 0.3 0.3 0.7c0.4 0.2 0.4 0.3 0.2 0.5c-0.1 0.1-0.1 0.1 0 0.3c0.1 0.3 0.1 1.1 0 1.5c-0.2 0.5-0.7 1-1.5 1.3l-0.5 0.2l0.3 0.5c0.6 0.7 0.8 1.3 1 2.3q0.3 1.5 1.2 3.2c1 2 1.1 2.2 1.4 3.2c0.2 0.5 0.3 0.9 0.3 1q0 0.1 0.1 0.1c0.1 0 3-0.5 3-0.6c0 0 0.2-1.1 0.2-1.3c0-0.1-0.3-0.2-1.5-0.9c-2.2-1.1-3.1-1.5-3.1-1.6q0 0 0-0.1q0.1 0 0.6 0.1c0.3 0.1 0.9 0.2 1.4 0.3c0.4 0.1 1.3 0.3 1.9 0.5c0.6 0.1 1.2 0.3 1.2 0.3c0.1 0 1-0.7 1-0.8c0-0.1-1.7-3.5-1.8-3.5q-0.1-0.1-0.1-0.2q0 0 0-0.1q-0.1 0-0.1-0.1c0-0.1-0.1-0.3-0.2-0.4q0 0 0-0.1c0-0.1 0.1 0 1.6 1.6c0.4 0.5 1 1.1 1.3 1.5l0.6 0.6h1.1l0.2-0.8c0.1-0.5 0.3-1.6 0.5-2.4c0.2-0.8 0.3-1.5 0.3-1.5c0 0 0.1 0.7 0.2 2.7c0 0.7 0.1 1.5 0.1 1.8v0.4l0.5 0.2c0.3 0.1 0.6 0.2 0.6 0.2c0 0 3-2.7 3.3-3q0.4-0.4 0.3-0.1q0 0.1-0.1 0.1q-0.1 0-0.1 0.1q0 0.1 0 0.1q-0.1 0-0.1 0.1c-0.1 0.1-0.3 0.6-0.5 0.9c-0.1 0.1-0.5 0.8-0.9 1.6l-0.8 1.4l0.3 0.2l0.2 0.2l1.2-0.3c0.6-0.2 1.6-0.5 2.3-0.7c0.7-0.2 1.3-0.3 1.3-0.3c0.1 0-0.8 0.6-1.9 1.3c-1.4 0.9-2 1.3-2 1.4c0.1 0 0.2 0.3 0.3 0.6c0.1 0.4 0.1 0.6 0.1 1.4c0.1 1 0.1 1 0.3 1.5c0.2 0.4 0.2 0.5 0.2 1.1c0 0.5 0 0.7-0.1 0.9c-0.2 0.3-0.2 0.4 0.1 0.6q0.1 0.2 0.7 0.4c1.2 0.3 2.3 0.8 2.6 1.2c0.4 0.4 0.6 1 0.7 1.7c0.2 1.3 0.2 6.5 0.3 7.4v1l-0.4 0.8c-0.5 1-0.9 1.6-1.2 1.9c-0.2 0.1-0.6 0.5-0.8 0.8c-0.3 0.4-0.6 0.7-0.7 0.9c-0.6 0.5-1.8 1.4-2.4 1.8c-0.4 0.2-0.9 0.5-1.2 0.7c-0.7 0.5-1.4 0.8-2.4 1.1c-0.5 0.2-1.2-4.1-1.6-4c-0.7 0.3-1.6 0.5-2 0.4c-0.1 0-0.4 0-0.5 0zm0.6-16.4c0.2-0.2 0.3-0.4 0.3-0.7c0-0.2 0-0.3-0.3-0.4c-0.2-0.1-0.5-0.3-0.7-0.5l-0.3-0.3l-0.7 0.2c-0.9 0.3-1 0.4-0.4 0.9c0.2 0.2 0.5 0.3 0.8 0.5c0.3 0.1 0.6 0.2 0.8 0.3c0.4 0.2 0.3 0.2 0.5 0zm-1.1-3.3c0.1 0 0-0.2 0-0.4l-0.2-0.2h-3.3l0.4 0.1c0.2 0.1 0.4 0.3 0.5 0.5c0.1 0.2 0.4 0.5 0.6 0.7l0.3 0.3l0.8-0.4c0.7-0.3 0.9-0.5 0.9-0.6z" /><path class="s0" d="m51.5 37v8.4c0 3.1-2.5 5.5-5.6 5.5h-38.9c-3.1 0-5.5-2.4-5.5-5.5v-8.4z" /><path class="s0" d="m341.3 70.6c0-2.1 1.8-3.9 4-3.9h45c2.2 0 3.9 1.8 3.9 3.9v45c0 2.2-1.7 4-3.9 4h-45c-2.2 0-4-1.8-4-4z" /><path class="s2" d="m344 72c0-1.5 1.1-2.7 2.6-2.7h42.3c1.5 0 2.7 1.2 2.7 2.7v42.3c0 1.5-1.2 2.6-2.7 2.6h-42.3c-1.5 0-2.6-1.1-2.6-2.6z" /><path class="s0" d="m376.4 77.5c0.2 0.2 0.2 0.2 0.3 0.5c0 0.3 0 0.4 0 0.6c-0.1 0.2-0.6 2.4-1 3.5c0 0.2-0.1 0.4-0.1 0.4c0 0.1 0 0.3-0.1 0.6c-0.1 0.2-0.2 0.7-0.3 1c-0.1 0.3-0.2 0.7-0.3 1c-0.1 0.3-0.1 0.5-0.1 0.6c0 0-0.1 0.2-0.2 0.4c0 0.3-0.1 0.5-0.1 0.5c0 0.1-0.2 0.9-0.5 1.7c-0.4 1.7-0.5 1.8-0.8 2.1c-0.2 0.2-0.3 0.2-0.6 0.3c-0.3 0.1-0.4 0.1-0.6 0.1c-0.3-0.1-0.4-0.1-0.5-0.3c-0.2-0.2-0.4-0.6-0.4-0.9q0-0.6 0.1-1.4c0.2-0.9 0.5-2.2 0.6-2.4c0-0.1 0.1-0.2 0.1-0.2c0 0 0.1-0.4 0.2-0.9c0.1-0.5 0.3-1.1 0.3-1.2c0.1-0.2 0.2-0.6 0.2-0.8c0.1-0.2 0.1-0.4 0.1-0.4c0-0.1 0.3-0.9 0.4-1.5c0.1-0.2 0.2-0.5 0.2-0.6c0.1-0.2 0.1-0.4 0.2-0.6c0-0.1 0.2-0.7 0.3-1.1c0.3-1 0.3-1.1 0.8-1.3c0.4-0.1 0.8-0.1 1.2 0q0.3 0.1 0.6 0.3zm-19.7-5c0.3 0.3 0.2 0.7-0.1 1.8c-0.1 0.3-0.2 0.7-0.3 1c0 0.3-0.2 0.7-0.2 1c-0.1 0.3-0.2 0.5-0.2 0.5c0 0.1 0 0.2-0.1 0.4c0 0.2-0.1 0.4-0.1 0.5c-0.1 0.2-0.2 0.5-0.2 0.8c-0.3 0.8-0.3 0.9-0.4 1.3c0 0.1-0.1 0.5-0.2 0.7c-0.1 0.2-0.2 0.7-0.3 1c-0.1 0.4-0.2 0.8-0.3 1c0 0.3-0.1 0.5-0.1 0.6c0 0.1-0.1 0.3-0.2 0.5c0 0.2-0.1 0.5-0.1 0.6c-0.1 0.6-0.6 1.1-1.1 1.3c-0.3 0.1-0.4 0.1-0.6 0q-0.5-0.1-0.8-0.5c-0.1-0.3-0.1-0.4-0.1-0.7c-0.1-0.6 0.1-1.3 0.6-3.6c0.1-0.3 0.2-0.7 0.2-0.8c0.1-0.1 0.2-0.4 0.2-0.7c0.1-0.3 0.2-0.7 0.3-1.1c0.3-1.1 0.6-2.1 0.6-2.3c0.1-0.1 0.1-0.2 0.1-0.3c0 0 0.1-0.3 0.2-0.5c0-0.2 0.1-0.4 0.1-0.5c0-0.1 0.2-0.6 0.3-1.2c0.3-0.9 0.4-1 0.5-1.2c0.2-0.1 0.2-0.1 0.5-0.2q0.6-0.1 1.1 0q0.5 0.2 0.7 0.6zm2.9 1c0.8 0.2 1.3 0.4 1.4 0.4c0 0 0.3 0.1 0.6 0.1c0.6 0.2 1.2 0.4 2 0.6c0.3 0.1 0.7 0.2 1 0.3c0.2 0 0.6 0.1 0.7 0.2c0.2 0 0.4 0.1 0.6 0.1c0.1 0.1 0.3 0.1 0.3 0.1c0 0 0.2 0.1 0.5 0.1c0.3 0.1 0.6 0.2 0.6 0.2c0 0 0.2 0 0.5 0.1c0.2 0.1 0.7 0.2 1 0.3c0.3 0.1 0.8 0.2 1.1 0.3c0.3 0.1 0.5 0.1 0.5 0.1c0 0 1 0.3 1.1 0.3c0.1 0.1-0.1 0.6-0.2 1.2c-0.1 0.2-0.2 0.7-0.3 1c-0.1 0.3-0.2 0.6-0.2 0.6c0 0-0.2 0.9-0.4 1.4c0 0.1-0.1 0.4-0.1 0.6c-0.1 0.3-0.2 0.5-0.2 0.6c0 0.1-0.1 0.3-0.1 0.4c0 0.2-0.1 0.5-0.2 0.8c-0.1 0.2-0.2 0.6-0.3 0.9c-0.2 0.9-0.4 1.8-0.6 2.2c0 0.2-0.1 0.4-0.1 0.5c0 0 0 0.1-0.1 0.3c0 0.2-0.1 0.6-0.2 0.7c-0.1 0.5-0.3 1.3-0.3 1.3c0 0.1-0.2 0-0.4 0c-0.2-0.1-0.3-0.1-0.4-0.1c0 0-0.1-0.1-0.3-0.1c-0.2-0.1-0.5-0.2-0.8-0.2c-0.2-0.1-0.6-0.2-0.9-0.3c-0.4-0.1-0.7-0.2-0.8-0.2c-0.1 0-0.4-0.1-0.7-0.2c-0.3-0.1-0.6-0.2-0.6-0.2c0 0-0.3 0-0.6-0.1q-0.7-0.2-1.7-0.5c-0.6-0.1-1.2-0.3-1.5-0.4c-0.2-0.1-0.4-0.1-0.4-0.1c0 0-0.3-0.1-0.6-0.2c-0.3 0-0.8-0.2-1.1-0.3c-0.2 0-0.7-0.1-0.9-0.2c-0.2-0.1-0.5-0.2-0.5-0.2c0 0 0-0.2 0.1-0.3c0.1-0.6 0.4-1.5 0.4-1.8c0.1-0.1 0.1-0.2 0.1-0.2c0 0 0.1-0.3 0.2-0.5c0-0.3 0.1-0.6 0.1-0.6c0 0 0.2-0.9 0.4-1.4c0-0.1 0.1-0.4 0.1-0.6c0.1-0.3 0.2-0.5 0.2-0.6c0-0.1 0.1-0.3 0.1-0.4c0.1-0.2 0.2-0.5 0.2-0.8c0.1-0.2 0.2-0.6 0.3-0.9c0.2-0.8 0.4-1.4 0.5-2.1c0.1-0.3 0.2-0.5 0.2-0.6c0 0 0.1-0.5 0.4-1.4l0.1-0.3zm13.8 4.3l-0.1 0.4c0 0.2-0.2 0.7-0.3 1c0 0.4-0.2 0.9-0.3 1.2c0 0.2-0.1 0.6-0.2 0.8c0 0.1 0 0.2 0 0.3c0 0-0.1 0.2-0.2 0.5c-0.1 0.3-0.1 0.5-0.1 0.5c0 0.1-0.1 0.3-0.2 0.6c-0.1 0.3-0.1 0.5-0.1 0.5c0 0.1-0.1 0.2-0.1 0.4c-0.1 0.2-0.2 0.5-0.2 0.6c-0.1 0.4-0.5 2-0.7 2.6c0 0.3-0.1 0.6-0.2 0.8c0 0.2-0.2 1.1-0.3 1.2c0 0-0.2-0.1-0.4-0.1c-0.8-0.2-0.9-0.3-1-0.3c0 0 0.1-0.1 0.1-0.2c0.1-0.5 0.8-3.2 0.9-3.5c0-0.1 0.1-0.4 0.1-0.5c0.2-0.6 0.5-1.7 0.5-1.7c0 0 0-0.3 0.1-0.6c0.4-1.2 0.4-1.4 0.4-1.5c0 0 0.1-0.2 0.2-0.5c0.1-0.3 0.1-0.6 0.1-0.6c0 0 0.1-0.2 0.2-0.5c0.1-0.5 0.1-0.6 0.3-1.3q0.1-0.5 0.2-0.5c0 0.1 0.2 0.1 0.5 0.2c0.2 0 0.5 0.1 0.6 0.1zm-14.8-3.9c0 0.1 0 0.1-0.3 1.3c-0.1 0.3-0.2 0.8-0.3 1.1c-0.1 0.4-0.2 0.7-0.2 0.9c-0.1 0.2-0.1 0.3-0.1 0.3c0 0 0 0.3-0.1 0.5c-0.1 0.3-0.2 0.5-0.2 0.5c0.1 0 0 0.3-0.1 0.6c-0.1 0.3-0.1 0.5-0.1 0.5c0 0-0.1 0.3-0.2 0.6c-0.1 0.3-0.1 0.5-0.1 0.5c0 0-0.1 0.2-0.2 0.5c0 0.3-0.1 0.7-0.2 0.9c-0.1 0.2-0.2 0.7-0.3 1c-0.1 0.4-0.2 0.8-0.2 0.9c-0.1 0.6-0.3 1.3-0.4 1.3c0 0-0.2 0-0.4-0.1c-0.3 0-0.6-0.1-0.7-0.2c-0.1 0-0.2 0-0.2-0.1c0 0 0-0.1 0-0.2c0.1-0.1 0.2-0.5 0.3-0.9c0.1-0.4 0.2-0.9 0.3-1.2c0.4-1.5 0.6-2.3 0.7-2.6c0-0.1 0.1-0.3 0.1-0.6c0.1-0.2 0.1-0.4 0.2-0.5c0-0.1 0.1-0.4 0.1-0.7c0.1-0.3 0.2-0.7 0.3-1c0.1-0.3 0.2-0.8 0.3-1c0-0.3 0.1-0.5 0.1-0.5c0 0 0.5-1.8 0.6-2c0-0.1 0-0.1 0.2-0.1c0.3 0.1 1 0.3 1.1 0.3zm1.8 14c0.1 0 0.2 0.1 0.3 0.1c0.2 0.1 0.6 0.2 1.6 0.4c0.3 0.1 0.6 0.2 0.8 0.3c0.2 0 0.4 0.1 0.5 0.1h0.1v0.1c0 0.1 0 0.2-0.1 0.3c0 0 0 0.1 0 0.1q0 0.1-0.1 0.2c0 0.1-0.1 0.3-0.1 0.5c0 0.1-0.1 0.4-0.1 0.4q-0.1 0.2-0.1 0.2c0 0 0 0.1 0 0.2c-0.1 0.2-0.2 0.5-0.2 0.7c0 0 0 0.1-0.1 0.1c0 0.1 0 0.2 0 0.2c0 0.1-0.1 0.2-0.1 0.3c0 0.1-0.1 0.2-0.1 0.3c0 0.1-0.1 0.3-0.1 0.5c-0.1 0.1-0.1 0.3-0.2 0.5c0 0.1 0 0.2-0.1 0.3c0 0.1 0 0.3 0 0.3c-0.1 0.1-0.1 0.2-0.1 0.2c-0.1 0.3-0.2 0.6-0.2 0.6q0 0 0 0.2c0 0-0.1 0.2-0.1 0.4c0 0-0.1 0.3-0.2 0.4c0 0.1 0 0.2 0 0.2c0 0.1 0 0.2-0.1 0.3c0 0.1-0.1 0.3-0.1 0.4c-0.1 0.4-0.2 0.6-0.2 0.6c0 0-0.3-0.1-0.7-0.2c-0.3-0.1-0.7-0.2-0.8-0.2c-0.2-0.1-1.1-0.3-1.6-0.5c-0.2 0-0.4-0.1-0.4-0.1c0 0 0-0.1 0-0.2c0.1-0.2 0.1-0.3 0.2-0.7c0.1-0.1 0.1-0.3 0.1-0.4c0.1-0.2 0.1-0.2 0.2-0.5c0-0.2 0.1-0.3 0.2-0.8c0-0.1 0.1-0.3 0.1-0.4c0.1-0.2 0.1-0.3 0.1-0.4c0.1-0.3 0.2-0.7 0.3-0.9c0-0.1 0.1-0.3 0.1-0.4c0-0.1 0.1-0.3 0.1-0.4c0.1-0.1 0.1-0.3 0.1-0.4c0.1-0.1 0.1-0.2 0.1-0.3c0 0 0.1-0.1 0.1-0.2c0-0.1 0.1-0.3 0.1-0.4c0-0.1 0.1-0.3 0.1-0.4c0-0.1 0.1-0.2 0.1-0.2c0 0 0-0.1 0-0.2c0.1-0.3 0.2-0.6 0.2-0.6c0-0.1 0.1-0.3 0.2-0.6zm2.2 10.2c0 0 0 0.3-0.1 0.6c-0.1 0.4-0.2 0.8-0.3 1c0 0.2-0.1 0.4-0.1 0.4c0 0-0.9-0.2-1-0.3c-0.1 0-0.3 0-0.4-0.1c-0.2 0-0.4 0-0.6-0.1c-0.4-0.1-0.3-0.1-1.2-0.3c-0.7-0.2-0.8-0.2-2-0.5c-0.3-0.1-0.6-0.2-0.6-0.2q-0.1 0-0.2 0l-0.1-0.1l0.2-0.6c0.1-0.4 0.2-0.7 0.2-0.7c0-0.2 0.1-0.7 0.2-0.7q0 0 0 0c0.1 0 0.9 0.2 1.7 0.4c0.4 0.1 1.4 0.4 1.9 0.5c0.2 0.1 0.3 0.1 0.3 0.1c0.1 0 0.3 0.1 0.5 0.1c0.2 0.1 0.7 0.2 1 0.3c0.3 0.1 0.6 0.2 0.6 0.2zm-3.1 1.9c0.6 0.1 1.5 0.4 1.5 0.4c0 0-0.1 0.5-0.2 0.8c-0.1 0.2-0.1 0.3-0.1 0.3c0 0 0 0.2-0.1 0.5c-0.1 0.2-0.1 0.4-0.1 0.4c0 0-0.1 0.2-0.3 1.2c-0.1 0.2-0.2 0.5-0.2 0.5c0 0 0 0.2-0.1 0.4c-0.1 0.2-0.1 0.4-0.1 0.4q0 0.1-0.4 1.3c0 0.2 0 0.4 0 0.4c0 0-0.1 0.2-0.2 0.4c0 0.3-0.5 1.9-0.6 2.2l-4.1-1.2c0-0.1 0.1-0.3 0.1-0.4c0-0.1 0.1-0.3 0.1-0.3c0-0.1 0-0.3 0.1-0.5c0-0.2 0.1-0.3 0.1-0.4c0 0 0-0.2 0.1-0.4c0.1-0.2 0.1-0.4 0.1-0.4c0 0 0.1-0.2 0.1-0.4c0.1-0.2 0.1-0.4 0.1-0.4c0 0 0.1-0.2 0.1-0.4q0.2-0.6 0.4-1.4c0.1-0.2 0.2-0.5 0.2-0.9c0.3-1.1 0.4-1.3 0.5-1.6c0.2-0.9 0.3-1.2 0.3-1.2c0.1 0 0.3 0 0.6 0.1c0.6 0.2 0.8 0.2 2.1 0.6z" /><path class="s0" d="m392.8 103.7v8.4c0 3-2.5 5.5-5.6 5.5h-38.9c-3.1 0-5.5-2.5-5.5-5.5v-8.4z" /><path fill-rule="evenodd" class="s3" d="m349.5 113.3l-0.5-1.3h-2.9l-0.5 1.3h-1.2l2.6-6h1.2l2.5 6zm-3-2.3h2.1l-1-2.5z" /><path class="s3" d="m351.8 110.8q0 0.7 0.4 1.1q0.4 0.4 1 0.4q0.7 0 1.1-0.4q0.4-0.4 0.4-1.1v-3.5h1.1v3.5q0 0.8-0.3 1.4q-0.3 0.5-0.9 0.8q-0.6 0.3-1.4 0.3q-0.8 0-1.3-0.3q-0.6-0.3-0.9-0.8q-0.4-0.6-0.4-1.4v-3.5h1.2z" /><path class="s3" d="m356 107.3h4.8v1h-1.8v5h-1.2v-5h-1.8z" /><path class="s3" d="m361.1 107.3h1.1v2.6h3v-2.6h1.1v6h-1.1v-2.5h-3v2.5h-1.1z" /><path fill-rule="evenodd" class="s3" d="m369.9 107.2q0.9 0 1.6 0.4q0.7 0.4 1.2 1.1q0.4 0.7 0.4 1.6q0 0.8-0.4 1.5q-0.5 0.7-1.2 1.1q-0.7 0.4-1.6 0.4q-0.9 0-1.6-0.4q-0.7-0.4-1.1-1.1q-0.4-0.7-0.4-1.5q0-0.9 0.4-1.6q0.4-0.7 1.1-1.1q0.7-0.4 1.6-0.4zm0 1.1q-0.5 0-1 0.2q-0.4 0.3-0.7 0.8q-0.3 0.4-0.3 1q0 0.5 0.3 1q0.3 0.5 0.7 0.7q0.5 0.3 1 0.3q0.6 0 1-0.3q0.5-0.2 0.7-0.7q0.3-0.5 0.3-1q0-0.6-0.3-1q-0.2-0.5-0.7-0.8q-0.4-0.2-1-0.2z" /><path fill-rule="evenodd" class="s3" d="m377.2 113.3l-1-1.8q0 0-0.2 0h-1.3v1.8h-1.2v-6h2.5q1.2 0 1.8 0.6q0.6 0.5 0.6 1.5q0 0.7-0.3 1.2q-0.3 0.4-0.9 0.7l1.3 2zm-2.5-2.8h1.3q0.7 0 1-0.3q0.3-0.2 0.3-0.8q0-0.5-0.3-0.8q-0.3-0.3-1-0.3h-1.3z" /><path class="s3" d="m379.1 107.3h1.2v6h-1.2z" /><path class="s3" d="m380.5 107.3h4.9v1h-1.9v5h-1.1v-5h-1.9z" /><path class="s3" d="m390.4 107.3l-2.1 4v2h-1.2v-1.9l-2.2-4.1h1.2l1.6 2.8l1.6-2.8z" /><path class="s0" d="m285.8 70.6c0-2.1 1.7-3.9 3.9-3.9h45c2.2 0 4 1.8 4 3.9v45c0 2.2-1.8 4-4 4h-45c-2.2 0-3.9-1.8-3.9-4z" /><path class="s4" d="m288.4 72c0-1.5 1.2-2.7 2.6-2.7h42.4c1.4 0 2.6 1.2 2.6 2.7v42.3c0 1.5-1.2 2.6-2.6 2.6h-42.4c-1.4 0-2.6-1.1-2.6-2.6z" /><path fill-rule="evenodd" class="s0" d="m310.5 71.8c3.9 0.4 7.2 1.8 10.2 4.2c0.6 0.5 1.7 1.7 2.2 2.2q2.3 2.8 3.3 6c0.7 1.9 1 3.7 1 5.7c0 1.1-0.1 1.7-0.2 2.7c-0.8 5.9-4.6 11-9.9 13.7c-2 1-4.2 1.6-6.4 1.8c-0.7 0.1-2 0.1-2.4 0.1c-0.1 0-0.5 0-0.8-0.1c-3-0.2-6-1.2-8.5-2.9c-1.2-0.8-1.9-1.4-2.9-2.4c-0.4-0.3-0.8-0.8-1-1.1q-3.7-4.4-4.3-10.2c0-0.8 0-2.4 0-3.2q0.6-5.6 4.2-10c0.5-0.6 1.7-1.8 2.4-2.4c2.9-2.4 6.3-3.7 10.1-4.1c0.3 0 0.9 0 1.5 0c0.6 0 1.1 0 1.5 0zm-8.8 4c-1.6 0.8-3 1.8-4.3 3.2q-0.1 0.1-0.1 0.1q0.1 0.1 0.3 0.2c0.3 0.2 0.6 0.4 0.9 0.6c0.4 0.2 1 0.5 1.5 0.7q0.4 0.2 0.6 0.3q0 0 0.1 0q0-0.1 0.1-0.3c0.3-0.7 0.9-1.8 1.3-2.4c0.7-1.3 1.7-2.6 2.6-3.6c-1 0.3-2.1 0.7-3 1.2zm14.3 2.6c0.3 0.4 1 1.8 1.2 2.4l0.1 0.1l0.2-0.1c0.2 0 0.6-0.3 1-0.4c0.3-0.2 0.8-0.4 1-0.6c0.3-0.1 0.6-0.3 0.9-0.5q0.2-0.1 0.3-0.2q-0.1 0-0.1-0.1q-0.3-0.2-0.7-0.7c-1.8-1.7-4.2-3-6.7-3.7c1 1.1 2 2.4 2.8 3.8zm-8.4-3.5c-0.3 0.3-0.7 0.7-0.9 0.9c-1.3 1.4-2.3 2.8-3.2 4.5c-0.2 0.3-0.4 0.7-0.5 1q-0.1 0.2-0.2 0.4q0.1 0 0.2 0c0.3 0.1 0.7 0.2 1.1 0.3c1.2 0.3 2.9 0.5 3.7 0.5h0.1v-4c0-1.2 0-2.3 0-3.1c0-0.3 0-0.5 0-0.7q-0.2 0.1-0.3 0.2zm2.5 0.4c0 0.7 0 1.8 0 3.2v4c0.1 0 0.4 0 0.6 0c1.4-0.1 2.9-0.4 4.2-0.7q0.2-0.1 0.3-0.1q-0.1-0.2-0.2-0.4c-0.2-0.4-0.4-0.8-0.5-1c-1-1.8-2.1-3.3-3.5-4.8c-0.2-0.1-0.5-0.4-0.8-0.7q0-0.1-0.1-0.1c0 0.1 0 0.3 0 0.6zm-15.3 7.4c-0.7 1.3-1.2 2.9-1.5 4.3c-0.1 0.7-0.2 1.3-0.2 1.7v0.2h2.8h2.9c0.1-1.8 0.4-3.8 1-5.6c0-0.1 0-0.2 0.1-0.3c-0.1 0-0.1 0-0.2 0c-1.2-0.5-2.5-1.3-3.7-2q-0.1 0-0.1-0.1c-0.3 0.4-0.8 1.2-1.1 1.8zm27.1-1.7c-1.1 0.7-2.5 1.5-3.7 2q-0.1 0-0.1 0c0.1 0.4 0.4 1.6 0.6 2.1c0.2 1.3 0.4 2.9 0.4 3.8q0 0 0 0q0.1 0 0.1 0q0.2 0 0.7 0c0.5 0 1.3 0 2.2 0h2.8c0-0.6-0.2-1.9-0.4-2.8c-0.5-1.9-1.3-3.5-2.4-5.2q-0.1 0.1-0.2 0.1zm-7.2 2.9c-1.4 0.3-2.7 0.5-4.5 0.6l-0.3 0.1l-0.1 2.2c0 1.2 0 2.2 0.1 2.3c0 0 0.7 0 3.6 0h3.7l-0.1-0.3c0-1.3-0.4-3.4-0.8-4.9c-0.2-0.4-0.2-0.4-0.2-0.4c-0.3 0.1-0.9 0.2-1.4 0.4zm-12.8 0.1c-0.3 1-0.6 2.4-0.7 3.5c-0.1 0.4-0.1 0.7-0.1 1q0 0.2 0 0.3q0 0 0 0q0.2 0.1 0.7 0.1c0.6 0 1.5 0 2.7 0h3.3v-4.1h-0.1c-2.1-0.2-4-0.5-5.7-1c0 0 0 0.1-0.1 0.2zm-8.8 7.2c0.1 1.8 0.7 4.1 1.6 5.9c0.2 0.4 0.5 1 0.8 1.4q0.2 0.3 0.3 0.5q0 0 0.1 0.1q0-0.1 0.1-0.1c0.9-0.6 2.4-1.5 3.6-1.9q0.1-0.1 0.2-0.1v-0.2c-0.5-1.6-0.8-3.3-1-4.9c0-0.3 0-0.7 0-0.8h-5.7zm7.9 0c0.1 1.3 0.3 2.6 0.6 3.8c0.1 0.4 0.2 0.7 0.3 1q0 0.1 0 0.2q0.1 0 0.2-0.1h0.2c1.8-0.5 3.3-0.8 5.4-1h0.1v-4h-3.4h-3.4zm12.5-0.2h-3.4v4.1h0.2c2 0.1 4 0.5 5.7 1q0 0 0 0q0-0.1 0.1-0.2c0.4-1.5 0.7-3.2 0.8-4.7v-0.2zm5.6 0.5c-0.1 1.6-0.4 3.5-0.9 5.2l-0.1 0.2q0.1 0 0.3 0.1c1.1 0.5 2.7 1.3 3.6 1.9q0.1 0.1 0.1 0.1q0.1-0.1 0.2-0.3c1.4-2.1 2.2-4.5 2.5-7.1c0.1-0.2 0.1-0.5 0.1-0.6h-5.8c0 0.1 0 0.3 0 0.5zm-11.5 5.8c-1.1 0.1-2.6 0.3-3.8 0.6q-0.7 0.2-1 0.3q-0.1 0-0.1 0q0.1 0.2 0.1 0.3c0.2 0.3 0.3 0.7 0.5 0.9c1 2 2.2 3.7 3.7 5.2c0.3 0.3 0.6 0.6 0.8 0.8q0 0 0 0c0-0.2 0-0.5 0-0.8c0-0.7 0-1.8 0-2.9v-4.4zm2.5 4.2c0 2.1 0 3.2 0 3.8c0 0 0 0 0 0.1q0.1-0.1 0.3-0.2c1.9-1.8 3.5-4.1 4.6-6.5q0.2-0.3 0.3-0.5q-0.1 0-0.1 0q-0.2-0.1-0.7-0.2c-0.5-0.1-1.2-0.3-1.7-0.4c-0.8-0.1-1.8-0.2-2.5-0.3h-0.2zm-10-2.2c-0.4 0.1-0.7 0.3-1 0.4c-0.4 0.2-1 0.5-1.4 0.8q-0.2 0.1-0.4 0.3q0.2 0.1 0.4 0.4c0.3 0.3 0.7 0.6 0.8 0.7c1.6 1.4 3.4 2.4 5.3 3.1c0.2 0.1 0.6 0.2 0.8 0.3c-1.5-1.8-2.9-3.9-3.9-6.1c0-0.1-0.1-0.1-0.1-0.2q-0.2 0.1-0.5 0.3zm17.2-0.1c-1 2.2-2.3 4.2-3.9 6c2.3-0.7 4.5-1.8 6.3-3.4c0.2-0.2 0.5-0.5 0.7-0.7q0.2-0.2 0.3-0.3q-0.2-0.2-0.8-0.5c-0.4-0.3-1-0.6-1.5-0.8c-0.4-0.2-0.8-0.4-1-0.5c0 0.1-0.1 0.1-0.1 0.2z" /><path class="s0" d="m337.2 103.7v8.4c0 3-2.5 5.5-5.5 5.5h-38.9c-3.1 0-5.6-2.5-5.6-5.5v-8.4z" /><text style="transform: matrix(2,0,0,2,312.158,113.252)" ><tspan x="-6.8" y="0" class="t5">GLOBE
</tspan></text><path class="s0" d="m230.2 70.6c0-2.1 1.8-3.9 4-3.9h44.9c2.2 0 4 1.8 4 3.9v45c0 2.2-1.8 4-4 4h-44.9c-2.2 0-4-1.8-4-4z" /><path class="s6" d="m232.8 72c0-1.5 1.2-2.7 2.7-2.7h42.3c1.5 0 2.7 1.2 2.7 2.7v42.3c0 1.5-1.2 2.6-2.7 2.6h-42.3c-1.5 0-2.7-1.1-2.7-2.6z" /><path class="s0" d="m281.6 103.7v8.4c0 3-2.4 5.5-5.5 5.5h-38.9c-3.1 0-5.6-2.5-5.6-5.5v-8.4z" /><path fill-rule="evenodd" class="s0" d="m249 103.7v-1.6l-1.3-0.2c-1.3-0.2-3-0.7-4-1.2c-1.5-0.7-3.1-2.2-3.7-3.4c-0.3-0.6-0.3-0.9-0.3-1.7c0-1.2 0.3-1.9 1.1-2.6c0.8-0.7 1.8-1 3-1c1.2 0 1.9 0.2 2.7 0.9c2.6 2.1 1.2 5.6-2.4 5.9l-0.8 0.1l0.4 0.3c0.7 0.7 2.2 1.3 4.1 1.6c1.4 0.3 1.2 0.9 1.2-5.1v-5.2l-0.7-0.3c-0.3-0.2-1.1-0.5-1.8-0.8c-2.8-1.2-4.9-2.9-5.6-4.9c-0.6-1.6-0.4-4.1 0.4-5.8c1.1-2.2 3.7-4 7-4.6l0.7-0.1v-3.1h1.1v3h2.5v-3h1.2v1.6c0 0.8 0 1.5 0.1 1.5c0.4 0 1.9 0.3 2.7 0.5c3.3 1 5.2 2.7 5.4 4.9c0.1 0.9-0.1 1.6-0.8 2.3c-0.8 0.7-1.3 1-2.7 1c-1 0-1.2-0.1-1.9-0.4c-0.8-0.5-1.4-1.2-1.6-2.1c-0.2-0.6-0.2-0.7 0.1-1.5c0.3-0.8 0.5-1.1 1.5-1.7c0.4-0.2 0.7-0.3 1.3-0.3c0.4 0 0.7-0.1 0.7-0.1c0-0.3-2.1-1.2-3.4-1.4c-0.5-0.1-1-0.2-1.1-0.2l-0.3-0.1l0.1 9.7l1.2 0.5c2.8 0.9 5.2 2.2 6.4 3.3c1.8 1.6 2.4 2.6 2.5 4.6c0.1 2.1-0.3 3.7-1.5 5.3c-1.1 1.4-2.6 2.4-4.9 3.1c-0.7 0.2-1.9 0.5-2.6 0.5l-1.2 0.2v3.2h-1.2v-3.2h-2.5v3.2h-1.1zm3.2-2.6h0.5v-9.4l-1.2-0.4c-0.6-0.3-1.2-0.4-1.3-0.4c-0.1 0-0.1 1.8-0.1 5.1v5.1h0.5c0.3 0.1 0.7 0.1 0.8 0c0.2 0 0.5 0 0.8 0zm3.1-0.7c0.9-0.4 2.1-1.4 2.4-2.2c0.4-0.8 0.4-2.2 0-3c-0.5-1.2-1.4-1.9-3.2-2.8l-0.7-0.3v8.8l0.4-0.1c0.2 0 0.7-0.2 1.1-0.4zm-2.6-20.9v-4.7h-0.8c-0.5 0-1.1 0.1-1.3 0.1l-0.5 0.1l0.1 8.5l0.3 0.1c0.2 0 0.7 0.2 1.2 0.3c0.5 0.2 0.9 0.4 0.9 0.4c0.1 0 0.1-2.2 0.1-4.8zm-3.6-0.4c0-4.3 0-4.1-1.2-3.4c-0.9 0.5-1.9 1.4-2.1 2.3q-0.8 2 1.2 3.7c0.4 0.4 1.8 1.2 2 1.3c0 0 0.1-1.8 0.1-3.9z" /><text style="transform: matrix(2,0,0,2,256.362,113.621)" ><tspan x="-9.5" y="0" class="t5">MARKETS
</tspan></text><path class="s0" d="m396.9 15.1c0-2.2 1.8-4 3.9-4h45c2.2 0 4 1.8 4 4v45c0 2.2-1.8 3.9-4 3.9h-45c-2.1 0-3.9-1.7-3.9-3.9z" /><path class="s7" d="m399.5 16.4c0-1.5 1.2-2.6 2.7-2.6h42.3c1.5 0 2.6 1.1 2.6 2.6v42.3c0 1.5-1.1 2.7-2.6 2.7h-42.3c-1.5 0-2.7-1.2-2.7-2.7z" /><path fill-rule="evenodd" class="s0" d="m402.8 51.4c0.1 0 0.6-0.9 1.2-1.8l1-1.7v-25.2l-1.2-1.9c-0.6-1-1.1-1.8-1-1.9c0 0 3.6 0 7.9 0.1c6.3 0.2 9.5 0.2 15.7 0c4.3-0.1 7.8-0.1 7.8-0.1c0.1 0.1-0.4 1-1.1 2l-1.1 1.9v25.1l1.1 1.8c0.7 1 1.2 1.9 1.2 1.9c0 0-7.1 0-15.8 0c-10.5 0-15.7-0.1-15.7-0.2zm8.3-3.3c0 0-0.2-0.5-0.4-1.1c-0.5-1.5-0.7-2.9-0.5-4c0.3-1.8 1.1-2.7 3.9-4.6c2.4-1.6 2.6-1.9 2.6-3c0-1.1-0.3-1.6-2.5-3c-3-2.1-3.8-3.1-4-4.8c-0.2-1.1 0-2.9 0.4-4.1l0.3-1h-4.2v12.7c0 10 0 12.7 0.2 12.7c0.2 0 3 0.2 3.8 0.2c0.2 0.1 0.4 0 0.4 0zm18.4-0.2l0.8-0.1v-25.3h-2.1c-1.9 0-2.2 0.1-2.1 0.3c0.6 1.5 0.8 2.5 0.8 3.9c0 1.3-0.1 1.7-0.4 2.2c-0.5 1.1-1.5 2-3.3 3.2c-2.3 1.5-3 2.2-3 3.4c0 0.9 0.5 1.4 2.5 2.8c3.2 2.1 4.1 3.2 4.2 5.3c0.1 1.1-0.2 2.3-0.9 4l-0.3 0.6l1.5-0.1c0.8-0.1 1.9-0.1 2.3-0.2zm-4-3.3c0.3-1.1-0.2-2.3-1.3-3.3c-0.6-0.6-4.4-3.2-4.6-3.2c-0.2 0-0.1 1.4 0.1 2.5c0.4 1.7 1.3 3.1 2.5 3.7c0.5 0.3 1.9 0.6 2.6 0.6c0.5 0.1 0.6 0 0.7-0.3zm-11.5 0c1.5-0.5 2.6-1.5 3.1-3c0.3-0.8 0.6-3.3 0.5-3.4c-0.1-0.2-2.6 1.4-3.9 2.4c-1.6 1.3-2.3 2.4-2.1 3.6c0.1 0.6 0.1 0.6 0.8 0.6c0.4 0 1.1-0.1 1.6-0.2zm8.3-14.8c1.8-0.5 2.8-1.2 3.1-2.3c0.3-0.8 0.1-2.1-0.5-3.7l-0.4-1.1h-12l-0.4 1.1c-0.5 1.4-0.7 3.5-0.4 4.2c0.6 1.1 1.9 1.7 4 2c1.5 0.2 5.5 0.1 6.6-0.2z" /><path class="s0" d="m448.3 48.2v8.3c0 3.1-2.4 5.5-5.5 5.5h-38.9c-3.1 0-5.6-2.4-5.6-5.5v-8.3z" /><path class="s3" d="m401.3 51.8h4.9v1h-1.9v4.9h-1.1v-4.9h-1.9z" /><path fill-rule="evenodd" class="s3" d="m410.1 57.7l-1-1.8q-0.1 0-0.2 0h-1.3v1.8h-1.2v-5.9h2.5q1.2 0 1.8 0.5q0.6 0.5 0.6 1.5q0 0.7-0.3 1.2q-0.3 0.5-0.9 0.7l1.3 2zm-2.5-2.8h1.3q0.6 0 1-0.2q0.3-0.3 0.3-0.9q0-0.5-0.3-0.8q-0.4-0.2-1-0.2h-1.3z" /><path fill-rule="evenodd" class="s3" d="m416.4 57.7l-0.5-1.3h-2.9l-0.5 1.3h-1.2l2.6-5.9h1.2l2.5 5.9zm-3-2.2h2.1l-1-2.5z" /><path fill-rule="evenodd" class="s3" d="m420.3 51.8q0.9 0 1.6 0.3q0.7 0.4 1.1 1.1q0.4 0.7 0.4 1.5q0 0.9-0.4 1.6q-0.4 0.6-1.2 1q-0.7 0.4-1.6 0.4h-2.4v-5.9zm0 4.9q0.6 0 1-0.3q0.4-0.2 0.7-0.6q0.2-0.5 0.2-1.1q0-0.5-0.2-1q-0.3-0.4-0.7-0.7q-0.5-0.2-1-0.2h-1.3v3.9z" /><path class="s3" d="m423.8 51.8h1.2v5.9h-1.2z" /><path class="s3" d="m425.2 51.8h4.9v1h-1.9v4.9h-1.1v-4.9h-1.9z" /><path class="s3" d="m430.3 51.8h1.2v5.9h-1.2z" /><path fill-rule="evenodd" class="s3" d="m435.1 51.7q0.9 0 1.6 0.4q0.7 0.4 1.1 1.1q0.5 0.7 0.5 1.5q0 0.9-0.5 1.6q-0.4 0.7-1.1 1.1q-0.7 0.4-1.6 0.4q-0.9 0-1.6-0.4q-0.7-0.4-1.1-1.1q-0.5-0.7-0.5-1.6q0-0.8 0.5-1.5q0.4-0.7 1.1-1.1q0.7-0.4 1.6-0.4zm0 1q-0.5 0-1 0.3q-0.5 0.2-0.7 0.7q-0.3 0.5-0.3 1q0 0.6 0.3 1q0.3 0.5 0.7 0.8q0.5 0.2 1 0.2q0.6 0 1-0.2q0.5-0.3 0.7-0.8q0.3-0.4 0.3-1q0-0.5-0.3-1q-0.2-0.5-0.7-0.7q-0.4-0.3-1-0.3z" /><path class="s3" d="m442.9 51.8h1.1v5.9h-1.1l-3.1-4.1v4.1h-1.1v-5.9h1.1l3.1 4.1z" /><path class="s0" d="m396.9 70.6c0-2.1 1.8-3.9 3.9-3.9h45c2.2 0 4 1.8 4 3.9v45c0 2.2-1.8 4-4 4h-45c-2.1 0-3.9-1.8-3.9-4z" /><path class="s8" d="m399.5 72c0-1.5 1.2-2.7 2.7-2.7h42.3c1.5 0 2.6 1.2 2.6 2.7v42.3c0 1.5-1.1 2.6-2.6 2.6h-42.3c-1.5 0-2.7-1.1-2.7-2.6z" /><path fill-rule="evenodd" class="s0" d="m418.5 73.6q0 0 0 0q0 0 0 0q0 0 0 0c1.2 0 2.3 0.9 3.2 2.5c1 1.5 1.7 3.7 2.3 6.5c2.6-0.9 4.8-1.4 6.6-1.4c2 0.1 3.3 0.6 3.9 1.6q0.3 0.6 0.3 1.3q0 1.3-0.9 2.8c-0.8 1.6-2.4 3.3-4.5 5.2c2.1 1.8 3.7 3.5 4.6 5.1q0 0 0 0q0 0 0 0q0 0 0 0q0 0 0 0q0.8 1.6 0.8 2.8q0 0.7-0.3 1.3c-0.6 1-1.9 1.5-3.8 1.5c-1.8 0.1-4.1-0.4-6.7-1.3c-0.6 2.7-1.3 4.9-2.2 6.5q0 0 0 0q0 0 0 0q0 0 0 0q0 0 0 0c-1 1.6-2.1 2.5-3.3 2.5c-1.2 0-2.3-0.9-3.3-2.5q0 0 0 0q0 0 0 0q0 0 0 0q0 0 0 0c-0.9-1.6-1.6-3.8-2.2-6.5c-2.6 0.9-4.9 1.4-6.7 1.4q0 0 0 0q0 0 0 0q0 0 0 0q0 0 0 0c-1.9-0.1-3.2-0.6-3.8-1.6q0 0 0 0q0 0 0 0q0 0 0 0q0 0 0 0q-0.3-0.6-0.3-1.3q0-1.2 0.8-2.8q0 0 0 0q0 0 0 0q0 0 0 0q0 0 0 0c0.9-1.6 2.5-3.3 4.6-5.1c-2.1-1.9-3.6-3.6-4.5-5.2q-0.9-1.6-0.9-2.8q0-0.7 0.3-1.3q0 0 0 0q0 0 0 0q0 0 0 0q0 0 0 0c0.6-1 1.9-1.5 3.9-1.6c1.8 0 4 0.5 6.6 1.4c0.6-2.8 1.3-5 2.3-6.5c0.9-1.5 1.9-2.1 2.9-2.3q0 0 0 0q0 0 0 0q0 0 0 0q0 0 0 0q0 0 0.1-0.1q0 0 0-0.1q0 0 0.1 0q0 0 0.1 0q0 0 0 0zm-1 2.3q-0.5 0.5-1.1 1.6c-0.7 1.3-1.2 3.2-1.7 5.7q1.9 0.7 3.8 1.6q1.9-0.9 3.8-1.6c-0.5-2.5-1-4.4-1.7-5.7q-0.6-1.1-1.1-1.6q-0.5-0.5-1-0.5c-0.3 0-0.6 0.2-1 0.5zm-12.4 7.2c-0.5 0.2-0.8 0.4-0.9 0.6q0 0 0 0q0 0 0 0q0 0 0 0q0 0-0.1 0q-0.2 0.5-0.1 1.2q0.2 0.7 0.9 1.7q0 0 0 0q0 0 0 0q0 0 0 0q0 0 0 0c0.8 1.3 2.2 2.7 4.1 4.3q1.5-1.3 3.3-2.5q0.1-2 0.4-4c-2.3-0.9-4.2-1.4-5.7-1.5q-0.3 0-0.6 0q-0.8 0-1.3 0.2zm24.9-0.2c-1.5 0.1-3.5 0.6-5.7 1.5q0.3 2 0.4 4q1.8 1.2 3.3 2.5c1.9-1.6 3.3-3 4.2-4.3q0 0 0 0q0 0 0 0q0 0 0 0q0 0 0 0q0.6-1 0.8-1.7c0.1-0.5 0-0.9-0.1-1.2q-0.3-0.4-0.9-0.6q-0.6-0.2-1.4-0.2q-0.3 0-0.6 0zm-9.4 3q0.5 0.3 1.1 0.6q0 0 0 0q0 0 0 0q0 0 0 0q0 0 0 0q0.5 0.4 1.1 0.7q-0.1-1.1-0.3-2.2q-0.9 0.4-1.9 0.9zm-6.4 1.3q0.6-0.3 1.1-0.7q0 0 0 0q0 0 0 0q0 0 0 0q0 0 0 0q0.6-0.3 1.1-0.6q-1-0.5-1.9-0.9q-0.2 1.1-0.3 2.2zm2.1 0.9q0 0 0 0q0 0 0 0q0 0 0 0q0 0 0 0q-1.2 0.7-2.2 1.4q-0.1 1.2-0.1 2.6q0 1.3 0.1 2.5q1 0.7 2.2 1.3q0 0 0 0q0 0 0 0q0 0 0 0q0 0 0 0q1.1 0.7 2.2 1.3q1.1-0.6 2.2-1.3q0 0 0 0q0 0 0 0q0 0 0 0q0 0 0 0q1.2-0.6 2.2-1.3q0.1-1.2 0.1-2.5q0-1.4-0.1-2.6q-1-0.7-2.2-1.4q-1.1-0.6-2.2-1.2q-1.1 0.6-2.2 1.2zm3.3 2.1q0.5 0.2 0.8 0.8q0.3 0.5 0.3 1.1q0 0.5-0.3 1q0 0 0 0q0 0 0 0q0 0 0 0q0 0 0 0q-0.3 0.5-0.8 0.8q-0.5 0.3-1.1 0.3q-0.6 0-1.1-0.3q-0.5-0.3-0.8-0.8q0 0 0 0q0 0 0 0q0 0 0 0q0 0 0 0q-0.2-0.5-0.3-1q0-0.6 0.3-1.1q0.3-0.6 0.8-0.8q0.5-0.3 1.1-0.3q0.6 0 1.1 0.3zm-9.2 1.9q0.8 0.6 1.7 1.2q0-0.6 0-1.2q0-0.7 0-1.3q-0.9 0.6-1.7 1.3zm14.5 0q0 0.6-0.1 1.2q1-0.6 1.8-1.2q-0.8-0.7-1.8-1.3q0.1 0.6 0.1 1.3zm-20.1 5.4q0 0 0 0q0 0 0 0q0 0 0 0q0 0 0 0q-0.6 1.1-0.8 1.8q-0.1 0.7 0.1 1c0.2 0.3 0.5 0.5 0.9 0.7q0.7 0.2 1.9 0.1c1.5 0 3.5-0.5 5.8-1.4q-0.3-2-0.4-4q-1.8-1.2-3.4-2.5c-1.9 1.6-3.3 3.1-4.1 4.3zm19.9-1.8q-0.1 2-0.4 4c2.3 0.9 4.3 1.4 5.8 1.4q1.2 0.1 1.9-0.1q0.7-0.2 0.9-0.7q0 0 0 0q0 0 0 0q0 0 0 0q0 0 0 0c0.1-0.2 0.2-0.6 0.1-1q-0.2-0.7-0.8-1.8q0 0 0 0q0 0 0 0q0 0 0 0q0 0 0 0c-0.8-1.2-2.2-2.7-4.1-4.3q-1.6 1.3-3.4 2.5zm-10.3 3.4q1-0.5 2-0.9q-0.5-0.3-1.1-0.6q-0.5-0.4-1.1-0.7q0.1 1.1 0.2 2.2zm7.3-1.5q0 0 0 0q0 0 0 0q0 0 0 0q0 0 0 0q-0.6 0.3-1.1 0.6q1 0.4 1.9 0.9q0.2-1.1 0.3-2.2q-0.6 0.3-1.1 0.7zm-7 3.3c0.4 2.4 1 4.4 1.7 5.7q0.5 1.1 1.1 1.6q0.5 0.5 1 0.4c0.3 0 0.7-0.1 1-0.4q0.5-0.5 1.1-1.6q0 0 0 0q0 0 0 0q0 0 0 0q0 0 0 0c0.7-1.3 1.2-3.3 1.7-5.7q-1.9-0.7-3.8-1.7q-1.9 1-3.8 1.7z" /><path class="s0" d="m448.3 103.7v8.4c0 3-2.4 5.5-5.5 5.5h-38.9c-3.1 0-5.6-2.5-5.6-5.5v-8.4z" /><path fill-rule="evenodd" class="s3" d="m404.4 107.3q1.1 0 1.7 0.6q0.6 0.5 0.6 1.5q0 1-0.6 1.5q-0.6 0.6-1.7 0.6h-1.3v1.8h-1.1v-6zm-0.1 3.2q0.7 0 1-0.3q0.3-0.2 0.3-0.8q0-0.5-0.3-0.8q-0.3-0.3-1-0.3h-1.2v2.2z" /><path fill-rule="evenodd" class="s3" d="m410.9 113.3l-1.1-1.8q0 0-0.2 0h-1.3v1.8h-1.1v-6h2.4q1.2 0 1.8 0.6q0.6 0.5 0.6 1.5q0 0.7-0.3 1.2q-0.3 0.4-0.8 0.7l1.3 2zm-2.6-2.8h1.3q0.7 0 1-0.3q0.3-0.2 0.3-0.8q0-0.5-0.3-0.8q-0.3-0.3-1-0.3h-1.3z" /><path fill-rule="evenodd" class="s3" d="m415.4 107.2q0.9 0 1.6 0.4q0.8 0.4 1.2 1.1q0.4 0.7 0.4 1.6q0 0.8-0.4 1.5q-0.4 0.7-1.2 1.1q-0.7 0.4-1.6 0.4q-0.8 0-1.6-0.4q-0.7-0.4-1.1-1.1q-0.4-0.7-0.4-1.5q0-0.9 0.4-1.6q0.4-0.7 1.1-1.1q0.8-0.4 1.6-0.4zm0.1 1.1q-0.6 0-1.1 0.2q-0.4 0.3-0.7 0.8q-0.3 0.4-0.3 1q0 0.5 0.3 1q0.3 0.5 0.7 0.7q0.5 0.3 1.1 0.3q0.5 0 0.9-0.3q0.5-0.2 0.8-0.7q0.2-0.5 0.2-1q0-0.6-0.2-1q-0.3-0.5-0.8-0.8q-0.4-0.2-0.9-0.2z" /><path class="s3" d="m422.9 110.3h1v2.3q-0.5 0.3-1.1 0.5q-0.7 0.2-1.3 0.2q-0.8 0-1.6-0.4q-0.7-0.4-1.1-1.1q-0.4-0.7-0.4-1.5q0-0.9 0.4-1.6q0.4-0.6 1.2-1q0.7-0.5 1.6-0.5q0.6 0 1.3 0.3q0.6 0.2 1 0.6l-0.6 0.8q-0.4-0.3-0.8-0.5q-0.5-0.1-0.9-0.1q-0.6 0-1 0.2q-0.5 0.3-0.8 0.8q-0.2 0.4-0.2 1q0 0.5 0.2 1q0.3 0.5 0.8 0.7q0.4 0.3 1 0.3q0.3 0 0.6-0.1q0.4-0.1 0.7-0.3z" /><path fill-rule="evenodd" class="s3" d="m428.4 113.3l-1.1-1.8q0 0-0.2 0h-1.3v1.8h-1.1v-6h2.4q1.2 0 1.8 0.6q0.6 0.5 0.6 1.5q0 0.7-0.3 1.2q-0.3 0.4-0.8 0.7l1.3 2zm-2.6-2.8h1.3q0.7 0 1-0.3q0.3-0.2 0.3-0.8q0-0.5-0.3-0.8q-0.3-0.3-1-0.3h-1.3z" /><path class="s3" d="m430.2 107.3h4.4v1h-3.2v1.5h2.9v1h-2.9v1.5h3.3v1h-4.5z" /><path class="s3" d="m439 108.8q-0.4-0.2-0.9-0.4q-0.5-0.1-0.8-0.1q-0.5 0-0.7 0.1q-0.2 0.2-0.2 0.4q0 0.3 0.1 0.5q0.2 0.1 0.4 0.2q0.3 0.1 0.7 0.3q0.6 0.1 1 0.3q0.4 0.2 0.7 0.5q0.2 0.4 0.2 1q0 0.5-0.3 0.9q-0.2 0.4-0.8 0.6q-0.5 0.2-1.1 0.2q-0.7 0-1.4-0.2q-0.6-0.3-1.1-0.7l0.4-1q0.5 0.4 1.1 0.7q0.5 0.2 1 0.2q0.5 0 0.7-0.2q0.3-0.2 0.3-0.5q0-0.2-0.2-0.4q-0.1-0.2-0.4-0.3q-0.2-0.1-0.7-0.2q-0.6-0.2-1-0.3q-0.3-0.2-0.6-0.6q-0.3-0.3-0.3-0.9q0-0.5 0.3-0.9q0.3-0.3 0.8-0.6q0.5-0.2 1.1-0.2q0.6 0 1.2 0.2q0.5 0.2 1 0.5z" /><path class="s3" d="m443.8 108.8q-0.4-0.2-0.9-0.4q-0.5-0.1-0.9-0.1q-0.4 0-0.6 0.1q-0.2 0.2-0.2 0.4q0 0.3 0.1 0.5q0.2 0.1 0.4 0.2q0.3 0.1 0.7 0.3q0.6 0.1 1 0.3q0.4 0.2 0.7 0.5q0.2 0.4 0.2 1q0 0.5-0.3 0.9q-0.2 0.4-0.8 0.6q-0.5 0.2-1.1 0.2q-0.7 0-1.4-0.2q-0.6-0.3-1.1-0.7l0.4-1q0.5 0.4 1 0.7q0.6 0.2 1.1 0.2q0.5 0 0.7-0.2q0.3-0.2 0.3-0.5q0-0.2-0.2-0.4q-0.1-0.2-0.4-0.3q-0.2-0.1-0.7-0.2q-0.6-0.2-1-0.3q-0.3-0.2-0.6-0.6q-0.3-0.3-0.3-0.9q0-0.5 0.3-0.9q0.3-0.3 0.8-0.6q0.5-0.2 1.1-0.2q0.6 0 1.2 0.2q0.5 0.2 1 0.5z" /><text style="transform: matrix(1,0,0,1,-257.489,-71.03)" ><tspan x="-9" y="0" class="t9">ORD
</tspan></text><text style="transform: matrix(1,0,0,1,5,41)" ><tspan x="1.9" y="6.1" class="t9">L</tspan><tspan  y="6.1" class="t9">I</tspan><tspan  y="6.1" class="t9">B</tspan><tspan  y="6.1" class="t9">E</tspan><tspan  y="6.1" class="t9">R</tspan><tspan  y="6.1" class="t9">T</tspan><tspan  y="6.1" class="t9">A</tspan><tspan  y="6.1" class="t9">D</tspan><tspan  y="6.1" class="t9">
</tspan></text></svg>