<svg version="1.2" xmlns="http://www.w3.org/2000/svg" viewBox="0 0 53 53" width="53" height="53"><style>tspan{white-space:pre}.s0{fill:#222222}.s1{fill:#00897b}.t2{font-size: 8px;fill: #eeeeee;font-family: "Montserrat"}</style><path class="s0" d="m0 4c0-2.2 1.8-4 4-4h44.9c2.2 0 4 1.8 4 4v44.9c0 2.2-1.8 4-4 4h-44.9c-2.2 0-4-1.8-4-4z" /><path class="s1" d="m2.6 5.3c0-1.5 1.2-2.7 2.7-2.7h42.3c1.5 0 2.7 1.2 2.7 2.7v42.3c0 1.5-1.2 2.7-2.7 2.7h-42.3c-1.5 0-2.7-1.2-2.7-2.7z" /><path class="s0" d="m51.5 37v8.4c0 3.1-2.5 5.5-5.6 5.5h-38.9c-3.1 0-5.5-2.4-5.5-5.5v-8.4z" /><path fill-rule="evenodd" class="s0" d="m18.8 37v-1.6l-1.3-0.2c-1.3-0.2-3-0.7-4-1.1c-1.5-0.8-3.1-2.2-3.7-3.4c-0.3-0.7-0.3-1-0.3-1.8c0-1.2 0.3-1.9 1.1-2.6c0.8-0.7 1.8-1 3-1c1.2 0 1.9 0.2 2.7 0.9c2.6 2.1 1.2 5.6-2.3 5.9l-0.9 0.1l0.4 0.3c0.7 0.7 2.2 1.3 4.1 1.7c1.4 0.2 1.2 0.8 1.2-5.1v-5.3l-0.6-0.3c-0.4-0.1-1.2-0.5-1.8-0.7c-2.9-1.2-5-3-5.7-5c-0.6-1.6-0.4-4.1 0.4-5.7c1.1-2.3 3.7-4 7-4.7l0.7-0.1v-3h1.1v2.9h2.5v-2.9h1.2v1.5c0 0.8 0.1 1.5 0.1 1.5c0.4 0 1.9 0.3 2.7 0.6c3.3 0.9 5.3 2.7 5.4 4.8c0.1 0.9-0.1 1.6-0.8 2.3c-0.8 0.8-1.3 1-2.7 1c-1 0-1.2-0.1-1.8-0.4c-0.9-0.4-1.5-1.2-1.7-2.1c-0.2-0.5-0.2-0.7 0.1-1.4c0.3-0.9 0.5-1.2 1.5-1.8c0.4-0.2 0.7-0.3 1.3-0.3c0.4 0 0.7-0.1 0.7-0.1c0-0.3-2.1-1.2-3.4-1.4c-0.5-0.1-0.9-0.2-1.1-0.2h-0.3l0.1 9.6l1.2 0.5c2.8 1 5.2 2.2 6.4 3.3c1.8 1.6 2.4 2.6 2.5 4.6c0.1 2.1-0.3 3.7-1.5 5.3c-1 1.5-2.5 2.4-4.9 3.1c-0.7 0.2-1.9 0.5-2.6 0.6l-1.2 0.1v3.3h-1.2v-3.2h-2.5v3.2h-1.1zm3.2-2.7h0.5v-9.4l-1.2-0.4c-0.6-0.2-1.2-0.4-1.3-0.4c-0.1 0-0.1 1.8-0.1 5.1v5.1l0.6 0.1c0.3 0 0.6 0 0.8 0c0.1-0.1 0.4-0.1 0.7-0.1zm3.1-0.7c0.9-0.4 2.1-1.4 2.4-2.1c0.4-0.9 0.4-2.3 0-3.1c-0.5-1.1-1.4-1.9-3.2-2.7l-0.7-0.3v8.7l0.4-0.1c0.2 0 0.7-0.2 1.1-0.4zm-2.6-20.8v-4.7h-0.8c-0.5 0-1 0-1.3 0l-0.5 0.1l0.1 8.5l0.3 0.1c0.2 0 0.7 0.2 1.2 0.4c0.5 0.1 0.9 0.3 1 0.3c0 0 0-2.1 0-4.7zm-3.6-0.4c0-4.4 0-4.1-1.1-3.5c-1 0.5-1.9 1.5-2.2 2.3q-0.7 2.1 1.2 3.7c0.4 0.4 1.8 1.3 2 1.3c0 0 0.1-1.7 0.1-3.8z" /><text style="transform: matrix(1,0,0,1,25.083,47)" ><tspan x="-20.3" y="0" class="t2">M</tspan><tspan  y="0" class="t2">E</tspan><tspan  y="0" class="t2">R</tspan><tspan  y="0" class="t2">C</tspan><tspan  y="0" class="t2">A</tspan><tspan  y="0" class="t2">D</tspan><tspan  y="0" class="t2">O
</tspan></text><text style="transform: matrix(1,0,0,1,45,40)" ></text></svg>