<svg version="1.2" xmlns="http://www.w3.org/2000/svg" viewBox="0 0 53 53" width="53" height="53"><style>tspan{white-space:pre}.s0{fill:#222222}.s1{fill:#ff9800}.t2{font-size: 8px;fill: #eeeeee;font-family: "Montserrat"}</style><path class="s0" d="m0 4c0-2.2 1.8-4 4-4h44.9c2.2 0 4 1.8 4 4v44.9c0 2.2-1.8 4-4 4h-44.9c-2.2 0-4-1.8-4-4z" /><path class="s1" d="m2.6 5.3c0-1.5 1.2-2.7 2.7-2.7h42.3c1.5 0 2.7 1.2 2.7 2.7v42.3c0 1.5-1.2 2.7-2.7 2.7h-42.3c-1.5 0-2.7-1.2-2.7-2.7z" /><path fill-rule="evenodd" class="s0" d="m18.4 6.2c2.1 0 3.2 0.6 4.5 2.3c2.6 3.6 3.3 4.1 6 4.1c2.2 0 4-0.5 9-2.6c0.6-0.2 1.5 4.7 2 10.8l0.3 3.5l-1.5 0.7c-4 1.8-7.6 2.4-9.6 1.8c-1.2-0.3-2.2-1.3-3.8-3.8c-1.5-2.2-3.3-2.9-6.2-2.4c-2 0.4-5.6 1.6-5.7 1.9c0 0.1 0.9 4.3 2 9.2l1.8 8.1q-0.3 0-0.6 0q-0.3 0-0.6-0.1q-0.4 0-0.7 0q-0.3-0.1-0.6-0.1c-0.2-1.7-1.2-6.1-3.1-14.9c-2-8.9-3.4-15.9-3.4-16.2c0.3-0.8 0.9-1 1.5-0.5l0.4 0.4l1.5-0.6c2.6-1 5.1-1.6 6.8-1.6zm-7.7 3.9q0 0 0 0c-0.1 0.1 0.4 2.5 1.1 5.4q1.2 5.4 1.4 5c0.1-0.2 0.3-1.2 0.4-2.1q0.4-3.3-0.9-5.9c-0.5-1-1.6-2.4-2-2.4z" /><path class="s0" d="m51.5 37v8.4c0 3.1-2.5 5.5-5.6 5.5h-38.9c-3.1 0-5.5-2.4-5.5-5.5v-8.4z" /><text style="transform: matrix(1,0,0,1,26,47.188)" ><tspan x="-15.8" y="0" class="t2">N</tspan><tspan  y="0" class="t2">A</tspan><tspan  y="0" class="t2">C</tspan><tspan  y="0" class="t2">I</tspan><tspan  y="0" class="t2">Ó</tspan><tspan  y="0" class="t2">N
</tspan></text></svg>