<svg version="1.2" xmlns="http://www.w3.org/2000/svg" viewBox="0 0 53 53" width="53" height="53"><style>tspan{white-space:pre}.s0{fill:#222222}.s1{fill:#9c27b0}.t2{font-size: 8px;fill: #eeeeee;font-family: "Montserrat"}</style><path class="s0" d="m0 4c0-2.2 1.8-4 4-4h44.9c2.2 0 4 1.8 4 4v44.9c0 2.2-1.8 4-4 4h-44.9c-2.2 0-4-1.8-4-4z" /><path class="s1" d="m2.6 5.3c0-1.5 1.2-2.7 2.7-2.7h42.3c1.5 0 2.7 1.2 2.7 2.7v42.3c0 1.5-1.2 2.7-2.7 2.7h-42.3c-1.5 0-2.7-1.2-2.7-2.7z" /><path fill-rule="evenodd" class="s0" d="m21.6 6.9q0 0 0 0q0 0 0 0q0 0 0 0c1.2 0 2.3 0.9 3.3 2.5c0.9 1.5 1.6 3.8 2.2 6.5c2.6-0.9 4.8-1.4 6.7-1.3c1.9 0 3.2 0.5 3.8 1.5q0.4 0.6 0.4 1.3q0 1.3-0.9 2.8c-0.9 1.6-2.5 3.4-4.6 5.2c2.2 1.8 3.7 3.5 4.6 5.1q0 0 0 0q0 0 0 0q0 0 0 0q0 0 0 0q0.9 1.6 0.9 2.8q0 0.7-0.4 1.3c-0.6 1-1.9 1.5-3.7 1.6c-1.9 0-4.1-0.5-6.8-1.4c-0.6 2.7-1.3 4.9-2.2 6.5q0 0 0 0q0 0 0 0q0 0 0 0q0 0 0 0c-1 1.6-2.1 2.5-3.3 2.5c-1.2 0-2.3-0.9-3.3-2.5q0 0 0 0q0 0 0 0q0 0 0 0q0 0 0 0c-0.9-1.6-1.6-3.8-2.1-6.5c-2.7 0.9-5 1.4-6.8 1.4q0 0 0 0q0 0 0 0q0 0 0 0q0 0 0 0c-1.9-0.1-3.2-0.6-3.8-1.6q0 0 0 0q0 0 0 0q0 0 0 0q0 0 0 0q-0.3-0.6-0.3-1.3q0-1.2 0.9-2.8q0 0 0 0q0 0 0 0q0 0 0 0q0 0 0 0c0.8-1.5 2.4-3.3 4.5-5.1c-2.1-1.8-3.6-3.6-4.5-5.2q-0.9-1.5-0.9-2.8q0-0.7 0.3-1.3q0 0 0 0q0 0 0 0q0 0 0 0q0 0 0 0c0.6-1 2-1.5 3.9-1.5c1.8-0.1 4.1 0.4 6.7 1.3c0.5-2.7 1.2-5 2.2-6.5c0.9-1.5 1.9-2.1 2.9-2.3q0 0 0 0q0 0 0 0q0 0 0 0q0 0 0 0q0 0 0.1-0.1q0 0 0 0q0.1-0.1 0.1-0.1q0.1 0 0.1 0q0 0 0 0zm-1 2.3q-0.5 0.5-1.1 1.6c-0.7 1.3-1.2 3.3-1.6 5.7q1.8 0.7 3.7 1.7q1.9-1 3.8-1.7c-0.5-2.4-1-4.4-1.7-5.7q-0.6-1.1-1.1-1.6q-0.5-0.4-1-0.4c-0.3 0-0.6 0.1-1 0.4zm-12.4 7.2c-0.5 0.2-0.8 0.4-0.9 0.7q0 0 0 0q0 0 0 0q0 0 0 0q0 0 0 0q-0.3 0.4-0.1 1.1q0.1 0.7 0.8 1.7q0 0 0 0q0 0 0 0q0 0 0 0q0 0 0 0c0.8 1.3 2.2 2.7 4.1 4.3q1.5-1.3 3.3-2.4q0.1-2.1 0.4-4.1c-2.3-0.9-4.2-1.4-5.7-1.4q-0.3 0-0.6 0q-0.8 0-1.3 0.1zm25-0.1c-1.6 0-3.5 0.5-5.8 1.4q0.3 2 0.5 4.1q1.7 1.1 3.3 2.4c1.8-1.5 3.3-3 4.1-4.3q0 0 0 0q0 0 0 0q0 0 0 0q0 0 0 0q0.6-1 0.8-1.7c0.1-0.5 0.1-0.9-0.1-1.1q-0.2-0.5-0.9-0.7q-0.5-0.1-1.4-0.1q-0.2 0-0.5 0zm-9.5 2.9q0.5 0.3 1.1 0.6q0 0 0 0q0 0 0 0q0 0 0 0q0 0 0 0q0.6 0.4 1.1 0.7q-0.1-1.1-0.2-2.2q-1 0.5-2 0.9zm-6.4 1.3q0.6-0.3 1.1-0.6q0-0.1 0-0.1q0 0 0 0q0 0 0 0q0 0 0 0q0.6-0.3 1.2-0.6q-1-0.4-2-0.8q-0.2 1-0.3 2.1zm2.1 1q0 0 0 0q0 0 0 0q0 0 0 0q0 0 0 0q-1.1 0.6-2.2 1.3q-0.1 1.3-0.1 2.6q0 1.3 0.1 2.6q1 0.6 2.2 1.3q0 0 0 0q0 0 0 0q0 0 0 0q0 0 0 0q1.1 0.6 2.2 1.2q1.2-0.6 2.3-1.2q0 0 0 0q0 0 0 0q0 0 0 0q0 0 0 0q1.1-0.7 2.2-1.3q0-1.3 0-2.6q0-1.3 0-2.6q-1.1-0.7-2.2-1.3q-1.2-0.7-2.3-1.3q-1.1 0.6-2.2 1.3zm3.3 2q0.5 0.3 0.8 0.8q0.3 0.5 0.3 1.1q0 0.6-0.3 1.1q0 0 0 0q0 0 0 0q0 0 0 0q0 0 0 0q-0.3 0.5-0.8 0.7q-0.5 0.3-1.1 0.3q-0.5 0-1-0.3q-0.5-0.2-0.8-0.7q0 0 0 0q0 0 0 0q0 0 0 0q0 0 0 0q-0.3-0.5-0.3-1.1q0-0.6 0.3-1.1q0.2-0.5 0.8-0.8q0.5-0.3 1-0.3q0.6 0 1.1 0.3zm-9.2 1.9q0.9 0.6 1.8 1.2q0-0.6 0-1.2q0-0.7 0-1.3q-0.9 0.6-1.8 1.3zm14.5 0q0 0.6 0 1.2q0.9-0.6 1.7-1.2q-0.8-0.7-1.7-1.3q0 0.6 0 1.3zm-20 5.5q0 0 0 0q0 0 0 0q0 0 0 0q0 0 0 0q-0.7 1-0.8 1.7q-0.2 0.7 0.1 1.1c0.1 0.2 0.4 0.5 0.8 0.6q0.7 0.2 1.9 0.2c1.5-0.1 3.5-0.6 5.8-1.4q-0.3-2-0.4-4.1q-1.8-1.2-3.3-2.4c-2 1.5-3.4 3-4.1 4.3zm19.9-1.9q-0.2 2.1-0.5 4.1c2.4 0.8 4.3 1.3 5.8 1.4q1.2 0 1.9-0.2q0.7-0.2 0.9-0.6q0 0 0 0q0 0 0 0q0 0 0 0q0 0 0 0c0.2-0.3 0.2-0.6 0.1-1.1q-0.1-0.7-0.8-1.7q0 0 0 0q0 0 0 0q0 0 0 0q0 0 0 0c-0.8-1.3-2.2-2.8-4.1-4.3q-1.6 1.2-3.3 2.4zm-10.3 3.4q1-0.4 2-0.9q-0.6-0.3-1.2-0.6q-0.5-0.3-1.1-0.7q0.1 1.1 0.3 2.2zm7.2-1.5q0 0 0 0q0 0 0 0q0 0 0 0q0 0 0 0q-0.6 0.3-1.1 0.6q1 0.5 2 0.9q0.1-1.1 0.2-2.2q-0.5 0.4-1.1 0.7zm-6.9 3.3c0.4 2.4 0.9 4.4 1.6 5.7q0.6 1.1 1.1 1.6q0.6 0.5 1 0.5c0.4 0 0.7-0.2 1-0.5q0.6-0.5 1.1-1.6q0 0 0 0q0 0 0 0q0 0 0 0q0 0 0 0c0.7-1.3 1.3-3.3 1.7-5.7q-1.9-0.7-3.8-1.6q-1.9 0.9-3.7 1.6z" /><path class="s0" d="m51.5 37v8.4c0 3.1-2.5 5.5-5.6 5.5h-38.9c-3.1 0-5.5-2.4-5.5-5.5v-8.4z" /><text style="transform: matrix(1,0,0,1,-257.489,-71.03)" ><tspan x="-9" y="0" class="t2">ORD
</tspan></text><text style="transform: matrix(1,0,0,1,4,41)" ><tspan x=".6" y="6.1" class="t2">P</tspan><tspan  y="6.1" class="t2">R</tspan><tspan  y="6.1" class="t2">O</tspan><tspan  y="6.1" class="t2">G</tspan><tspan  y="6.1" class="t2">R</tspan><tspan  y="6.1" class="t2">E</tspan><tspan  y="6.1" class="t2">S</tspan><tspan  y="6.1" class="t2">O
</tspan></text></svg>